<?xml version="1.0" encoding="UTF-8"?>
<svg width="494px" height="152px" viewBox="0 0 494 152" version="1.1" xmlns="http://www.w3.org/2000/svg" xmlns:xlink="http://www.w3.org/1999/xlink">
    <!-- Generator: Sketch 51.3 (57544) - http://www.bohemiancoding.com/sketch -->
    <title>academylogofull</title>
    <desc>Created with Sketch.</desc>
    <defs>
        <polygon id="path-1" points="0 151.143 493.263 151.143 493.263 0 0 0"></polygon>
    </defs>
    <g id="Page-1" stroke="none" stroke-width="1" fill="none" fill-rule="evenodd">
        <g id="academylogofull">
            <path d="M256.1534,95.5682 L256.5654,95.5682 C257.4824,95.5682 258.3994,95.4352 258.3994,94.2942 C258.3994,93.5752 257.8404,93.0562 257.0564,93.0562 C256.4204,93.0562 255.8754,93.4432 255.6484,94.0932 L253.9614,93.6412 C254.3734,92.2472 255.5954,91.6222 256.9774,91.6222 C258.5984,91.6222 259.9934,92.4722 259.9934,94.1332 C259.9934,95.1432 259.3824,96.0062 258.3854,96.2592 L258.3854,96.2862 C259.5824,96.4592 260.2194,97.4162 260.2194,98.5722 C260.2194,100.3662 258.7174,101.3482 257.0444,101.3482 C255.5034,101.3482 254.2264,100.7112 253.8144,99.1432 L255.5154,98.6912 C255.7154,99.4622 256.1934,99.9142 257.0444,99.9142 C257.8944,99.9142 258.6254,99.3162 258.6254,98.4392 C258.6254,97.2162 257.5084,97.0042 256.5394,97.0042 L256.1534,97.0042 L256.1534,95.5682 Z" id="Fill-1" fill="#1E1E1E"></path>
            <path d="M267.3809,99.6746 C269.4809,99.6746 271.1949,98.7716 271.1949,96.4856 C271.1949,94.1996 269.7069,93.2956 267.6599,93.2956 L266.1319,93.2956 L266.1319,99.6746 L267.3809,99.6746 Z M264.4579,91.7816 L268.1649,91.7816 C270.6369,91.7816 272.9489,93.2956 272.9489,96.4856 C272.9489,99.7006 270.2259,101.1896 267.9659,101.1896 L264.4579,101.1896 L264.4579,91.7816 Z" id="Fill-3" fill="#1E1E1E"></path>
            <path d="M288.5586,97.6014 L287.1106,93.7754 L285.6356,97.6014 L288.5586,97.6014 Z M286.4326,91.7824 L287.8816,91.7824 L291.9346,101.1894 L290.0206,101.1894 L289.1436,99.0374 L285.0646,99.0374 L284.2136,101.1894 L282.3396,101.1894 L286.4326,91.7824 Z" id="Fill-5" fill="#1E1E1E"></path>
            <path d="M298.4219,95.7684 C299.3649,95.7684 300.4689,95.6884 300.4689,94.4654 C300.4689,93.3494 299.4319,93.2164 298.5679,93.2164 L297.1189,93.2164 L297.1189,95.7684 L298.4219,95.7684 Z M295.4449,91.7824 L298.7139,91.7824 C300.5219,91.7824 302.2229,92.3674 302.2229,94.4784 C302.2229,95.8334 301.4389,96.8304 300.0429,97.0304 L302.5409,101.1894 L300.5219,101.1894 L298.3419,97.2034 L297.1189,97.2034 L297.1189,101.1894 L295.4449,101.1894 L295.4449,91.7824 Z" id="Fill-7" fill="#1E1E1E"></path>
            <polygon id="Fill-9" fill="#1E1E1E" points="308.333 93.2957 305.449 93.2957 305.449 91.7817 312.891 91.7817 312.891 93.2957 310.007 93.2957 310.007 101.1897 308.333 101.1897"></polygon>
            <mask id="mask-2" fill="white">
                <use xlink:href="#path-1"></use>
            </mask>
            <g id="Clip-12"></g>
            <polygon id="Fill-11" fill="#1E1E1E" mask="url(#mask-2)" points="316.422 101.189 318.096 101.189 318.096 91.782 316.422 91.782"></polygon>
            <path d="M327.1436,93.8006 C326.7856,93.2956 326.1476,93.0566 325.4966,93.0566 C324.7256,93.0566 323.9556,93.4026 323.9556,94.2666 C323.9556,96.1536 328.4196,95.0766 328.4196,98.4256 C328.4196,100.4456 326.8256,101.4286 324.9786,101.4286 C323.8086,101.4286 322.6656,101.0706 321.8956,100.1536 L323.1576,98.9306 C323.5696,99.5556 324.2746,99.9136 325.0176,99.9136 C325.7896,99.9136 326.6656,99.4886 326.6656,98.6246 C326.6656,96.5656 322.2016,97.7476 322.2016,94.3856 C322.2016,92.4466 323.9286,91.5416 325.6686,91.5416 C326.6526,91.5416 327.6356,91.8216 328.3666,92.5126 L327.1436,93.8006 Z" id="Fill-13" fill="#1E1E1E" mask="url(#mask-2)"></path>
            <polygon id="Fill-14" fill="#1E1E1E" mask="url(#mask-2)" points="334.6436 93.2957 331.7596 93.2957 331.7596 91.7817 339.2016 91.7817 339.2016 93.2957 336.3176 93.2957 336.3176 101.1897 334.6436 101.1897"></polygon>
            <path d="M355.6485,93.9871 C354.9585,93.2571 354.3195,93.0561 353.6685,93.0561 C351.7285,93.0561 350.4395,94.5461 350.4395,96.4191 C350.4395,98.4251 351.7285,99.9141 353.6685,99.9141 C354.4255,99.9141 355.1575,99.5691 355.7815,98.7711 L357.1635,99.7541 C356.3125,100.9241 355.0375,101.4281 353.6555,101.4281 C350.7585,101.4281 348.6855,99.4621 348.6855,96.5251 C348.6855,93.5081 350.7585,91.5421 353.6555,91.5421 C354.9305,91.5421 356.0205,91.9541 356.9505,93.0311 L355.6485,93.9871 Z" id="Fill-15" fill="#1E1E1E" mask="url(#mask-2)"></path>
            <polygon id="Fill-16" fill="#1E1E1E" mask="url(#mask-2)" points="360.708 91.7821 366.939 91.7821 366.939 93.2961 362.382 93.2961 362.382 95.6081 366.701 95.6081 366.701 97.1241 362.382 97.1241 362.382 99.6751 367.179 99.6751 367.179 101.1891 360.708 101.1891"></polygon>
            <path d="M374.2295,95.7684 C375.1725,95.7684 376.2755,95.6884 376.2755,94.4654 C376.2755,93.3494 375.2395,93.2164 374.3755,93.2164 L372.9265,93.2164 L372.9265,95.7684 L374.2295,95.7684 Z M371.2525,91.7824 L374.5215,91.7824 C376.3295,91.7824 378.0295,92.3674 378.0295,94.4784 C378.0295,95.8334 377.2465,96.8304 375.8505,97.0304 L378.3485,101.1894 L376.3295,101.1894 L374.1495,97.2034 L372.9265,97.2034 L372.9265,101.1894 L371.2525,101.1894 L371.2525,91.7824 Z" id="Fill-17" fill="#1E1E1E" mask="url(#mask-2)"></path>
            <polygon id="Fill-18" fill="#1E1E1E" mask="url(#mask-2)" points="384.1397 93.2957 381.2567 93.2957 381.2567 91.7817 388.6977 91.7817 388.6977 93.2957 385.8147 93.2957 385.8147 101.1897 384.1397 101.1897"></polygon>
            <polygon id="Fill-19" fill="#1E1E1E" mask="url(#mask-2)" points="392.229 101.189 393.904 101.189 393.904 91.782 392.229 91.782"></polygon>
            <polygon id="Fill-20" fill="#1E1E1E" mask="url(#mask-2)" points="398.378 91.7821 404.45 91.7821 404.45 93.2961 400.052 93.2961 400.052 95.7681 404.198 95.7681 404.198 97.2831 400.052 97.2831 400.052 101.1891 398.378 101.1891"></polygon>
            <polygon id="Fill-21" fill="#1E1E1E" mask="url(#mask-2)" points="408.275 101.189 409.949 101.189 409.949 91.782 408.275 91.782"></polygon>
            <path d="M420.8887,93.9871 C420.1987,93.2571 419.5597,93.0561 418.9097,93.0561 C416.9687,93.0561 415.6797,94.5461 415.6797,96.4191 C415.6797,98.4251 416.9687,99.9141 418.9097,99.9141 C419.6657,99.9141 420.3967,99.5691 421.0217,98.7711 L422.4037,99.7541 C421.5537,100.9241 420.2777,101.4281 418.8957,101.4281 C415.9987,101.4281 413.9257,99.4621 413.9257,96.5251 C413.9257,93.5081 415.9987,91.5421 418.8957,91.5421 C420.1707,91.5421 421.2607,91.9541 422.1917,93.0311 L420.8887,93.9871 Z" id="Fill-22" fill="#1E1E1E" mask="url(#mask-2)"></path>
            <path d="M431.3858,97.6014 L429.9378,93.7754 L428.4618,97.6014 L431.3858,97.6014 Z M429.2598,91.7824 L430.7078,91.7824 L434.7608,101.1894 L432.8478,101.1894 L431.9708,99.0374 L427.8908,99.0374 L427.0398,101.1894 L425.1668,101.1894 L429.2598,91.7824 Z" id="Fill-23" fill="#1E1E1E" mask="url(#mask-2)"></path>
            <polygon id="Fill-24" fill="#1E1E1E" mask="url(#mask-2)" points="439.2246 93.2957 436.3406 93.2957 436.3406 91.7817 443.7826 91.7817 443.7826 93.2957 440.8986 93.2957 440.8986 101.1897 439.2246 101.1897"></polygon>
            <polygon id="Fill-25" fill="#1E1E1E" mask="url(#mask-2)" points="447.334 91.7821 453.565 91.7821 453.565 93.2961 449.008 93.2961 449.008 95.6081 453.327 95.6081 453.327 97.1241 449.008 97.1241 449.008 99.6751 453.805 99.6751 453.805 101.1891 447.334 101.1891"></polygon>
            <path d="M269.6006,63.1893 C262.9746,63.1893 256.3486,64.8453 256.3486,70.0813 C256.3486,73.8583 259.9936,75.7793 263.3056,75.7793 C271.7876,75.7793 273.9736,70.3453 273.9736,65.2443 L273.9736,63.1893 L269.6006,63.1893 Z M277.5516,65.7083 C277.5516,71.6703 277.6846,75.0503 278.1486,78.5623 L274.4376,78.5623 C274.1726,77.0383 274.0396,75.3153 274.0396,73.5913 L273.9076,73.5913 C271.6546,77.5023 268.3416,79.3573 263.1736,79.3573 C257.9386,79.3573 252.3726,76.7733 252.3726,70.2793 C252.3726,60.9373 263.3056,60.0093 269.3356,60.0093 L273.9736,60.0093 L273.9736,58.1543 C273.9736,52.8533 270.2636,50.7323 265.3606,50.7323 C261.7826,50.7323 258.7346,51.8593 256.0176,54.1783 L253.6986,51.4613 C256.6146,48.6783 261.3836,47.1553 265.3606,47.1553 C272.7816,47.1553 277.5516,50.4673 277.5516,58.2203 L277.5516,65.7083 Z" id="Fill-26" fill="#1DE76F" mask="url(#mask-2)"></path>
            <path d="M310.292,74.0565 C307.311,77.6335 303.401,79.3575 299.028,79.3575 C289.619,79.3575 282.927,72.5985 282.927,63.2555 C282.927,53.9135 289.619,47.1555 299.028,47.1555 C303.467,47.1555 307.443,49.0765 310.425,52.4555 L307.244,54.8405 C304.925,52.3225 302.208,50.7325 299.028,50.7325 C291.54,50.7325 286.902,56.3645 286.902,63.2555 C286.902,70.1475 291.54,75.7795 299.028,75.7795 C302.341,75.7795 305.19,74.0565 307.244,71.5375 L310.292,74.0565 Z" id="Fill-27" fill="#1DE76F" mask="url(#mask-2)"></path>
            <path d="M330.2041,63.1893 C323.5781,63.1893 316.9521,64.8453 316.9521,70.0813 C316.9521,73.8583 320.5971,75.7793 323.9091,75.7793 C332.3911,75.7793 334.5771,70.3453 334.5771,65.2443 L334.5771,63.1893 L330.2041,63.1893 Z M338.1551,65.7083 C338.1551,71.6703 338.2881,75.0503 338.7521,78.5623 L335.0411,78.5623 C334.7761,77.0383 334.6431,75.3153 334.6431,73.5913 L334.5121,73.5913 C332.2591,77.5023 328.9451,79.3573 323.7771,79.3573 C318.5421,79.3573 312.9761,76.7733 312.9761,70.2793 C312.9761,60.9373 323.9091,60.0093 329.9391,60.0093 L334.5771,60.0093 L334.5771,58.1543 C334.5771,52.8533 330.8671,50.7323 325.9641,50.7323 C322.3861,50.7323 319.3381,51.8593 316.6211,54.1783 L314.3021,51.4613 C317.2181,48.6783 321.9881,47.1553 325.9641,47.1553 C333.3851,47.1553 338.1551,50.4673 338.1551,58.2203 L338.1551,65.7083 Z" id="Fill-28" fill="#1DE76F" mask="url(#mask-2)"></path>
            <path d="M359.6319,50.7322 C352.1439,50.7322 347.5059,56.3642 347.5059,63.2552 C347.5059,70.1472 352.1439,75.7792 359.6319,75.7792 C366.8539,75.7792 372.4199,70.1472 372.4199,63.2552 C372.4199,56.3642 366.8539,50.7322 359.6319,50.7322 Z M372.0229,73.1952 L371.8899,73.1952 C369.4389,77.4352 364.2029,79.3572 359.6319,79.3572 C350.2229,79.3572 343.5299,72.5982 343.5299,63.2552 C343.5299,53.9142 350.2229,47.1552 359.6319,47.1552 C364.2029,47.1552 369.4389,49.0762 371.8899,53.3162 L372.0229,53.3162 L372.0229,35.2782 L375.9979,35.2782 L375.9979,78.5622 L372.0229,78.5622 L372.0229,73.1952 Z" id="Fill-29" fill="#1DE76F" mask="url(#mask-2)"></path>
            <path d="M406.9951,60.6717 C406.9951,55.2387 402.2911,50.7327 396.3931,50.7327 C387.7141,50.7327 385.2631,59.0807 385.2631,60.6717 L406.9951,60.6717 Z M410.0441,72.7977 C406.9301,77.4357 402.2251,79.3577 396.7921,79.3577 C387.4491,79.3577 381.2871,72.6647 381.2871,63.1897 C381.2871,54.0457 387.6471,47.1547 396.5931,47.1547 C406.0021,47.1547 410.9721,54.3767 410.9721,61.4667 L410.9721,64.2497 L385.2631,64.2497 C385.2631,67.5627 387.5811,75.7787 396.8571,75.7787 C400.8991,75.7787 405.1411,73.6587 407.1291,70.3457 L410.0441,72.7977 Z" id="Fill-30" fill="#1DE76F" mask="url(#mask-2)"></path>
            <path d="M416.5987,56.5633 C416.5987,54.3103 416.2667,49.5403 416.2667,47.9493 L420.2437,47.9493 C420.3087,50.2033 420.3747,52.7203 420.5077,53.3163 L420.7057,53.3163 C422.2967,49.9373 426.2057,47.1553 431.1757,47.1553 C435.2177,47.1553 438.9277,49.1423 440.3857,53.7803 C442.3077,49.2093 446.5477,47.1553 450.7887,47.1553 C460.3297,47.1553 462.4507,53.6473 462.4507,60.3403 L462.4507,78.5623 L458.4747,78.5623 L458.4747,60.5393 C458.4747,55.5703 457.0837,50.7323 450.7887,50.7323 C443.4337,50.7323 441.5127,56.9613 441.5127,61.3343 L441.5127,78.5623 L437.5357,78.5623 L437.5357,60.1413 C437.5357,54.5093 435.4827,50.7323 431.1757,50.7323 C425.2787,50.7323 420.5747,54.8403 420.5747,63.2553 L420.5747,78.5623 L416.5987,78.5623 L416.5987,56.5633 Z" id="Fill-31" fill="#1DE76F" mask="url(#mask-2)"></path>
            <path d="M477.4932,88.0379 C475.9702,91.9459 473.4512,94.4649 469.0782,94.4649 C467.7532,94.4649 466.4282,94.1989 465.1692,93.8679 L465.5662,90.1569 C466.6922,90.4879 467.9512,90.8869 469.1442,90.8869 C472.0592,90.8869 473.3192,88.1699 474.2462,85.7839 L477.0292,78.6939 L464.5722,47.9489 L469.0122,47.9489 L479.1492,73.7249 L489.0222,47.9489 L493.2632,47.9489 L477.4932,88.0379 Z" id="Fill-32" fill="#1DE76F" mask="url(#mask-2)"></path>
            <path d="M20.4043,89.0496 C28.5113,89.0496 33.7283,82.9476 33.7283,75.0816 C33.7283,67.2166 28.5113,61.1176 20.4043,61.1176 C12.2993,61.1176 7.0813,67.2166 7.0813,75.0816 C7.0813,82.9476 12.2993,89.0496 20.4043,89.0496 Z M0.0003,41.8836 L6.2603,41.8836 L6.2603,61.7556 C9.7113,57.7396 14.4463,55.3326 19.9043,55.3326 C31.7043,55.3326 39.6503,63.6806 39.6503,75.0756 C39.6503,86.3146 31.3823,94.8226 20.8673,94.8226 C14.1263,94.8226 8.5883,91.4506 6.2603,87.1976 L6.2603,93.8596 L0.0003,93.8596 L0.0003,41.8836 Z" id="Fill-33" fill="#1E1E1E" mask="url(#mask-2)"></path>
            <polygon id="Fill-34" fill="#1E1E1E" mask="url(#mask-2)" points="74.347 93.86 80.607 93.86 80.607 56.297 74.347 56.297"></polygon>
            <polygon id="Fill-35" fill="#1DE76F" mask="url(#mask-2)" points="74.475 48.161 80.752 48.161 80.752 41.884 74.475 41.884"></polygon>
            <path d="M65.5723,56.9852 C60.0253,56.8472 54.2723,60.1392 52.5783,63.4392 L52.5783,56.3022 L46.6983,56.3022 L46.6983,93.8652 L46.9753,93.8652 L50.0043,93.8652 L52.9603,93.8652 L52.9603,80.0862 C52.9603,78.5632 52.5983,70.5202 56.8033,66.6352 C59.3853,64.2512 63.1603,62.8252 67.6683,62.8252 L67.6683,57.1512 C66.5763,57.0122 66.4463,57.0062 65.5723,56.9852" id="Fill-36" fill="#1E1E1E" mask="url(#mask-2)"></path>
            <path d="M110.4903,88.6883 C109.5273,88.9233 108.5213,89.0203 107.4893,89.0203 C99.6553,89.0203 93.3183,82.9123 93.3183,75.0783 C93.3183,67.2443 99.6683,60.8933 107.5023,60.8933 C108.5323,60.8933 109.5303,61.0163 110.4983,61.2243 C113.1523,61.7063 115.5663,63.3583 117.5793,65.0763 L121.2973,61.2733 C117.5253,57.1773 112.3883,55.3333 106.8493,55.3333 C95.2913,55.3333 87.4253,63.6803 87.4253,75.0763 C87.4253,86.6353 95.2113,94.8233 106.8493,94.8233 C112.3083,94.8233 117.4453,92.9753 121.0563,88.8023 L116.9863,84.7963 C115.0573,86.5603 113.1473,88.0393 110.4903,88.6883" id="Fill-37" fill="#1E1E1E" mask="url(#mask-2)"></path>
            <polygon id="Fill-38" fill="#1E1E1E" mask="url(#mask-2)" points="160.0889 93.8592 138.7449 73.3922 156.8849 56.2962 148.1939 56.2962 134.2309 69.7992 134.2309 41.8832 127.9709 41.8832 127.9709 93.8592 134.2309 93.8592 134.2309 76.9842 151.6819 93.8592"></polygon>
            <polygon id="Fill-39" fill="#1E1E1E" mask="url(#mask-2)" points="203.226 151.143 205.348 151.143 205.348 -0.001 203.226 -0.001"></polygon>
        </g>
    </g>
</svg>