<?xml version="1.0" encoding="UTF-8"?>
<svg width="248px" height="48px" viewBox="0 0 248 48" version="1.1" xmlns="http://www.w3.org/2000/svg" xmlns:xlink="http://www.w3.org/1999/xlink">
    <!-- Generator: Sketch 51.3 (57544) - http://www.bohemiancoding.com/sketch -->
    <title>academylogo</title>
    <desc>Created with Sketch.</desc>
    <defs>
        <polygon id="path-1" points="0 47.9154 247.282 47.9154 247.282 0.0004 0 0.0004"></polygon>
    </defs>
    <g id="Page-1" stroke="none" stroke-width="1" fill="none" fill-rule="evenodd">
        <g id="academylogo">
            <path d="M129.4221,25.6566 C125.9301,25.6566 122.4391,26.5296 122.4391,29.2876 C122.4391,31.2786 124.3591,32.2906 126.1051,32.2906 C130.5741,32.2906 131.7271,29.4276 131.7271,26.7396 L131.7271,25.6566 L129.4221,25.6566 Z M133.6121,26.9836 C133.6121,30.1256 133.6821,31.9066 133.9261,33.7576 L131.9711,33.7576 C131.8311,32.9546 131.7611,32.0466 131.7611,31.1386 L131.6921,31.1386 C130.5051,33.1986 128.7581,34.1766 126.0351,34.1766 C123.2761,34.1766 120.3441,32.8146 120.3441,29.3926 C120.3441,24.4696 126.1051,23.9806 129.2821,23.9806 L131.7271,23.9806 L131.7271,23.0036 C131.7271,20.2096 129.7711,19.0926 127.1881,19.0926 C125.3021,19.0926 123.6961,19.6856 122.2641,20.9086 L121.0421,19.4766 C122.5791,18.0096 125.0921,17.2066 127.1881,17.2066 C131.0981,17.2066 133.6121,18.9526 133.6121,23.0386 L133.6121,26.9836 Z" id="Fill-1" fill="#25A7E0"></path>
            <path d="M150.8645,31.383 C149.2935,33.268 147.2335,34.176 144.9285,34.176 C139.9705,34.176 136.4445,30.615 136.4445,25.691 C136.4445,20.769 139.9705,17.207 144.9285,17.207 C147.2685,17.207 149.3635,18.219 150.9345,20 L149.2585,21.257 C148.0365,19.93 146.6045,19.092 144.9285,19.092 C140.9835,19.092 138.5395,22.06 138.5395,25.691 C138.5395,29.323 140.9835,32.291 144.9285,32.291 C146.6755,32.291 148.1765,31.383 149.2585,30.056 L150.8645,31.383 Z" id="Fill-3" fill="#25A7E0"></path>
            <path d="M161.3576,25.6566 C157.8656,25.6566 154.3746,26.5296 154.3746,29.2876 C154.3746,31.2786 156.2946,32.2906 158.0406,32.2906 C162.5096,32.2906 163.6616,29.4276 163.6616,26.7396 L163.6616,25.6566 L161.3576,25.6566 Z M165.5476,26.9836 C165.5476,30.1256 165.6176,31.9066 165.8616,33.7576 L163.9066,33.7576 C163.7666,32.9546 163.6966,32.0466 163.6966,31.1386 L163.6276,31.1386 C162.4406,33.1986 160.6936,34.1766 157.9706,34.1766 C155.2116,34.1766 152.2796,32.8146 152.2796,29.3926 C152.2796,24.4696 158.0406,23.9806 161.2176,23.9806 L163.6616,23.9806 L163.6616,23.0036 C163.6616,20.2096 161.7066,19.0926 159.1226,19.0926 C157.2376,19.0926 155.6316,19.6856 154.1996,20.9086 L152.9776,19.4766 C154.5136,18.0096 157.0276,17.2066 159.1226,17.2066 C163.0336,17.2066 165.5476,18.9526 165.5476,23.0386 L165.5476,26.9836 Z" id="Fill-5" fill="#25A7E0"></path>
            <path d="M176.8645,19.0923 C172.9185,19.0923 170.4745,22.0603 170.4745,25.6913 C170.4745,29.3233 172.9185,32.2903 176.8645,32.2903 C180.6705,32.2903 183.6035,29.3233 183.6035,25.6913 C183.6035,22.0603 180.6705,19.0923 176.8645,19.0923 Z M183.3935,30.9293 L183.3235,30.9293 C182.0315,33.1633 179.2735,34.1763 176.8645,34.1763 C171.9065,34.1763 168.3795,30.6153 168.3795,25.6913 C168.3795,20.7683 171.9065,17.2073 176.8645,17.2073 C179.2735,17.2073 182.0315,18.2193 183.3235,20.4543 L183.3935,20.4543 L183.3935,10.9483 L185.4885,10.9483 L185.4885,33.7573 L183.3935,33.7573 L183.3935,30.9293 Z" id="Fill-7" fill="#25A7E0"></path>
            <path d="M201.823,24.3297 C201.823,21.4667 199.344,19.0927 196.237,19.0927 C191.662,19.0927 190.371,23.4917 190.371,24.3297 L201.823,24.3297 Z M203.429,30.7197 C201.788,33.1637 199.309,34.1767 196.446,34.1767 C191.523,34.1767 188.276,30.6497 188.276,25.6567 C188.276,20.8387 191.628,17.2067 196.342,17.2067 C201.3,17.2067 203.918,21.0127 203.918,24.7487 L203.918,26.2157 L190.371,26.2157 C190.371,27.9607 191.593,32.2907 196.481,32.2907 C198.611,32.2907 200.845,31.1737 201.893,29.4277 L203.429,30.7197 Z" id="Fill-9" fill="#25A7E0"></path>
            <path d="M206.8835,22.1648 C206.8835,20.9778 206.7085,18.4638 206.7085,17.6258 L208.8035,17.6258 C208.8385,18.8128 208.8735,20.1398 208.9435,20.4538 L209.0485,20.4538 C209.8855,18.6738 211.9455,17.2068 214.5645,17.2068 C216.6945,17.2068 218.6505,18.2548 219.4185,20.6988 C220.4305,18.2888 222.6655,17.2068 224.9005,17.2068 C229.9275,17.2068 231.0455,20.6288 231.0455,24.1548 L231.0455,33.7568 L228.9505,33.7568 L228.9505,24.2598 C228.9505,21.6418 228.2165,19.0918 224.9005,19.0918 C221.0245,19.0918 220.0115,22.3748 220.0115,24.6788 L220.0115,33.7568 L217.9165,33.7568 L217.9165,24.0508 C217.9165,21.0828 216.8345,19.0918 214.5645,19.0918 C211.4575,19.0918 208.9785,21.2568 208.9785,25.6918 L208.9785,33.7568 L206.8835,33.7568 L206.8835,22.1648 Z" id="Fill-11" fill="#25A7E0"></path>
            <path d="M238.9719,38.7504 C238.1689,40.8104 236.8419,42.1374 234.5379,42.1374 C233.8399,42.1374 233.1409,41.9974 232.4779,41.8234 L232.6869,39.8674 C233.2809,40.0424 233.9439,40.2514 234.5729,40.2514 C236.1089,40.2514 236.7719,38.8204 237.2609,37.5634 L238.7279,33.8274 L232.1629,17.6254 L234.5029,17.6254 L239.8449,31.2084 L245.0479,17.6254 L247.2819,17.6254 L238.9719,38.7504 Z" id="Fill-13" fill="#25A7E0"></path>
            <path d="M10.7522,33.6738 C15.0242,33.6738 17.7732,30.4588 17.7732,26.3138 C17.7732,22.1688 15.0242,18.9548 10.7522,18.9548 C6.4812,18.9548 3.7312,22.1688 3.7312,26.3138 C3.7312,30.4588 6.4812,33.6738 10.7522,33.6738 Z M0.0002,8.8198 L3.2992,8.8198 L3.2992,19.2908 C5.1172,17.1748 7.6122,15.9068 10.4892,15.9068 C16.7062,15.9068 20.8942,20.3058 20.8942,26.3108 C20.8942,32.2328 16.5372,36.7168 10.9962,36.7168 C7.4442,36.7168 4.5252,34.9398 3.2992,32.6988 L3.2992,36.2078 L0.0002,36.2078 L0.0002,8.8198 Z" id="Fill-15" fill="#1E1E1E"></path>
            <mask id="mask-2" fill="white">
                <use xlink:href="#path-1"></use>
            </mask>
            <g id="Clip-18"></g>
            <polygon id="Fill-17" fill="#1E1E1E" mask="url(#mask-2)" points="39.177 36.2084 42.476 36.2084 42.476 16.4144 39.177 16.4144"></polygon>
            <polygon id="Fill-19" fill="#25A7E0" mask="url(#mask-2)" points="39.244 12.1274 42.552 12.1274 42.552 8.8194 39.244 8.8194"></polygon>
            <path d="M34.5539,16.7771 C31.6309,16.7041 28.5989,18.4391 27.7059,20.1781 L27.7059,16.4171 L24.6079,16.4171 L24.6079,36.2111 L24.7539,36.2111 L26.3499,36.2111 L27.9079,36.2111 L27.9079,28.9501 C27.9079,28.1481 27.7169,23.9101 29.9329,21.8631 C31.2939,20.6061 33.2829,19.8541 35.6579,19.8541 L35.6579,16.8641 C35.0829,16.7921 35.0139,16.7881 34.5539,16.7771" id="Fill-20" fill="#1E1E1E" mask="url(#mask-2)"></path>
            <path d="M58.2238,33.4833 C57.7158,33.6073 57.1858,33.6583 56.6418,33.6583 C52.5138,33.6583 49.1748,30.4393 49.1748,26.3113 C49.1748,22.1833 52.5208,18.8373 56.6488,18.8373 C57.1908,18.8373 57.7178,18.9013 58.2268,19.0113 C59.6258,19.2643 60.8988,20.1353 61.9588,21.0403 L63.9178,19.0363 C61.9308,16.8783 59.2238,15.9063 56.3048,15.9063 C50.2138,15.9063 46.0688,20.3053 46.0688,26.3103 C46.0688,32.4023 50.1718,36.7163 56.3048,36.7163 C59.1818,36.7163 61.8888,35.7423 63.7908,33.5433 L61.6458,31.4323 C60.6298,32.3623 59.6238,33.1413 58.2238,33.4833" id="Fill-21" fill="#1E1E1E" mask="url(#mask-2)"></path>
            <polygon id="Fill-22" fill="#1E1E1E" mask="url(#mask-2)" points="84.3596 36.2081 73.1126 25.4231 82.6716 16.4141 78.0916 16.4141 70.7336 23.5301 70.7336 8.8191 67.4346 8.8191 67.4346 36.2081 70.7336 36.2081 70.7336 27.3161 79.9296 36.2081"></polygon>
            <polygon id="Fill-23" fill="#1E1E1E" mask="url(#mask-2)" points="101.165 47.9154 102.448 47.9154 102.448 0.0004 101.165 0.0004"></polygon>
        </g>
    </g>
</svg>
