<?xml version="1.0" encoding="UTF-8"?>
<svg width="494px" height="152px" viewBox="0 0 494 152" version="1.1" xmlns="http://www.w3.org/2000/svg" xmlns:xlink="http://www.w3.org/1999/xlink">
    <!-- Generator: Sketch 51.3 (57544) - http://www.bohemiancoding.com/sketch -->
    <title>brickacademycertificate</title>
    <desc>Created with Sketch.</desc>
    <defs></defs>
    <g id="Page-1" stroke="none" stroke-width="1" fill="none" fill-rule="evenodd">
        <g id="brickacademycertificate" transform="translate(0.000000, -1.000000)" fill-rule="nonzero">
            <g id="3d_artist_certificate" transform="translate(253.000000, 92.000000)" fill="#25A7E0">
                <path d="M3.1534,4.5682 L3.5654,4.5682 C4.4824,4.5682 5.3994,4.4352 5.3994,3.2942 C5.3994,2.5752 4.8404,2.0562 4.0564,2.0562 C3.4204,2.0562 2.8754,2.4432 2.6484,3.0932 L0.9614,2.6412 C1.3734,1.2472 2.5954,0.6222 3.9774,0.6222 C5.5984,0.6222 6.9934,1.4722 6.9934,3.1332 C6.9934,4.1432 6.3824,5.0062 5.3854,5.2592 L5.3854,5.2862 C6.5824,5.4592 7.2194,6.4162 7.2194,7.5722 C7.2194,9.3662 5.7174,10.3482 4.0444,10.3482 C2.5034,10.3482 1.2264,9.7112 0.8144,8.1432 L2.5154,7.6912 C2.7154,8.4622 3.1934,8.9142 4.0444,8.9142 C4.8944,8.9142 5.6254,8.3162 5.6254,7.4392 C5.6254,6.2162 4.5084,6.0042 3.5394,6.0042 L3.1534,6.0042 L3.1534,4.5682 Z" id="Fill-1"></path>
                <path d="M14.3809,8.6746 C16.4809,8.6746 18.1949,7.7716 18.1949,5.4856 C18.1949,3.1996 16.7069,2.2956 14.6599,2.2956 L13.1319,2.2956 L13.1319,8.6746 L14.3809,8.6746 Z M11.4579,0.7816 L15.1649,0.7816 C17.6369,0.7816 19.9489,2.2956 19.9489,5.4856 C19.9489,8.7006 17.2259,10.1896 14.9659,10.1896 L11.4579,10.1896 L11.4579,0.7816 Z" id="Fill-3"></path>
                <path d="M35.5586,6.6014 L34.1106,2.7754 L32.6356,6.6014 L35.5586,6.6014 Z M33.4326,0.7824 L34.8816,0.7824 L38.9346,10.1894 L37.0206,10.1894 L36.1436,8.0374 L32.0646,8.0374 L31.2136,10.1894 L29.3396,10.1894 L33.4326,0.7824 Z" id="Fill-5"></path>
                <path d="M45.4219,4.7684 C46.3649,4.7684 47.4689,4.6884 47.4689,3.4654 C47.4689,2.3494 46.4319,2.2164 45.5679,2.2164 L44.1189,2.2164 L44.1189,4.7684 L45.4219,4.7684 Z M42.4449,0.7824 L45.7139,0.7824 C47.5219,0.7824 49.2229,1.3674 49.2229,3.4784 C49.2229,4.8334 48.4389,5.8304 47.0429,6.0304 L49.5409,10.1894 L47.5219,10.1894 L45.3419,6.2034 L44.1189,6.2034 L44.1189,10.1894 L42.4449,10.1894 L42.4449,0.7824 Z" id="Fill-7"></path>
                <polygon id="Fill-9" points="55.333 2.2957 52.449 2.2957 52.449 0.7817 59.891 0.7817 59.891 2.2957 57.007 2.2957 57.007 10.1897 55.333 10.1897"></polygon>
                <polygon id="Fill-11" points="63.422 10.189 65.096 10.189 65.096 0.782 63.422 0.782"></polygon>
                <path d="M74.1436,2.8006 C73.7856,2.2956 73.1476,2.0566 72.4966,2.0566 C71.7256,2.0566 70.9556,2.4026 70.9556,3.2666 C70.9556,5.1536 75.4196,4.0766 75.4196,7.4256 C75.4196,9.4456 73.8256,10.4286 71.9786,10.4286 C70.8086,10.4286 69.6656,10.0706 68.8956,9.1536 L70.1576,7.9306 C70.5696,8.5556 71.2746,8.9136 72.0176,8.9136 C72.7896,8.9136 73.6656,8.4886 73.6656,7.6246 C73.6656,5.5656 69.2016,6.7476 69.2016,3.3856 C69.2016,1.4466 70.9286,0.5416 72.6686,0.5416 C73.6526,0.5416 74.6356,0.8216 75.3666,1.5126 L74.1436,2.8006 Z" id="Fill-13"></path>
                <polygon id="Fill-14" points="81.6436 2.2957 78.7596 2.2957 78.7596 0.7817 86.2016 0.7817 86.2016 2.2957 83.3176 2.2957 83.3176 10.1897 81.6436 10.1897"></polygon>
                <path d="M102.6485,2.9871 C101.9585,2.2571 101.3195,2.0561 100.6685,2.0561 C98.7285,2.0561 97.4395,3.5461 97.4395,5.4191 C97.4395,7.4251 98.7285,8.9141 100.6685,8.9141 C101.4255,8.9141 102.1575,8.5691 102.7815,7.7711 L104.1635,8.7541 C103.3125,9.9241 102.0375,10.4281 100.6555,10.4281 C97.7585,10.4281 95.6855,8.4621 95.6855,5.5251 C95.6855,2.5081 97.7585,0.5421 100.6555,0.5421 C101.9305,0.5421 103.0205,0.9541 103.9505,2.0311 L102.6485,2.9871 Z" id="Fill-15"></path>
                <polygon id="Fill-16" points="107.708 0.7821 113.939 0.7821 113.939 2.2961 109.382 2.2961 109.382 4.6081 113.701 4.6081 113.701 6.1241 109.382 6.1241 109.382 8.6751 114.179 8.6751 114.179 10.1891 107.708 10.1891"></polygon>
                <path d="M121.2295,4.7684 C122.1725,4.7684 123.2755,4.6884 123.2755,3.4654 C123.2755,2.3494 122.2395,2.2164 121.3755,2.2164 L119.9265,2.2164 L119.9265,4.7684 L121.2295,4.7684 Z M118.2525,0.7824 L121.5215,0.7824 C123.3295,0.7824 125.0295,1.3674 125.0295,3.4784 C125.0295,4.8334 124.2465,5.8304 122.8505,6.0304 L125.3485,10.1894 L123.3295,10.1894 L121.1495,6.2034 L119.9265,6.2034 L119.9265,10.1894 L118.2525,10.1894 L118.2525,0.7824 Z" id="Fill-17"></path>
                <polygon id="Fill-18" points="131.1397 2.2957 128.2567 2.2957 128.2567 0.7817 135.6977 0.7817 135.6977 2.2957 132.8147 2.2957 132.8147 10.1897 131.1397 10.1897"></polygon>
                <polygon id="Fill-19" points="139.229 10.189 140.904 10.189 140.904 0.782 139.229 0.782"></polygon>
                <polygon id="Fill-20" points="145.378 0.7821 151.45 0.7821 151.45 2.2961 147.052 2.2961 147.052 4.7681 151.198 4.7681 151.198 6.2831 147.052 6.2831 147.052 10.1891 145.378 10.1891"></polygon>
                <polygon id="Fill-21" points="155.275 10.189 156.949 10.189 156.949 0.782 155.275 0.782"></polygon>
                <path d="M167.8887,2.9871 C167.1987,2.2571 166.5597,2.0561 165.9097,2.0561 C163.9687,2.0561 162.6797,3.5461 162.6797,5.4191 C162.6797,7.4251 163.9687,8.9141 165.9097,8.9141 C166.6657,8.9141 167.3967,8.5691 168.0217,7.7711 L169.4037,8.7541 C168.5537,9.9241 167.2777,10.4281 165.8957,10.4281 C162.9987,10.4281 160.9257,8.4621 160.9257,5.5251 C160.9257,2.5081 162.9987,0.5421 165.8957,0.5421 C167.1707,0.5421 168.2607,0.9541 169.1917,2.0311 L167.8887,2.9871 Z" id="Fill-22"></path>
                <path d="M178.3858,6.6014 L176.9378,2.7754 L175.4618,6.6014 L178.3858,6.6014 Z M176.2598,0.7824 L177.7078,0.7824 L181.7608,10.1894 L179.8478,10.1894 L178.9708,8.0374 L174.8908,8.0374 L174.0398,10.1894 L172.1668,10.1894 L176.2598,0.7824 Z" id="Fill-23"></path>
                <polygon id="Fill-24" points="186.2246 2.2957 183.3406 2.2957 183.3406 0.7817 190.7826 0.7817 190.7826 2.2957 187.8986 2.2957 187.8986 10.1897 186.2246 10.1897"></polygon>
                <polygon id="Fill-25" points="194.334 0.7821 200.565 0.7821 200.565 2.2961 196.008 2.2961 196.008 4.6081 200.327 4.6081 200.327 6.1241 196.008 6.1241 196.008 8.6751 200.805 8.6751 200.805 10.1891 194.334 10.1891"></polygon>
            </g>
            <g id="academy" transform="translate(252.000000, 36.000000)" fill="#1E1E1E">
                <path d="M17.6006,28.1893 C10.9746,28.1893 4.3486,29.8453 4.3486,35.0813 C4.3486,38.8583 7.9936,40.7793 11.3056,40.7793 C19.7876,40.7793 21.9736,35.3453 21.9736,30.2443 L21.9736,28.1893 L17.6006,28.1893 Z M25.5516,30.7083 C25.5516,36.6703 25.6846,40.0503 26.1486,43.5623 L22.4376,43.5623 C22.1726,42.0383 22.0396,40.3153 22.0396,38.5913 L21.9076,38.5913 C19.6546,42.5023 16.3416,44.3573 11.1736,44.3573 C5.9386,44.3573 0.3726,41.7733 0.3726,35.2793 C0.3726,25.9373 11.3056,25.0093 17.3356,25.0093 L21.9736,25.0093 L21.9736,23.1543 C21.9736,17.8533 18.2636,15.7323 13.3606,15.7323 C9.7826,15.7323 6.7346,16.8593 4.0176,19.1783 L1.6986,16.4613 C4.6146,13.6783 9.3836,12.1553 13.3606,12.1553 C20.7816,12.1553 25.5516,15.4673 25.5516,23.2203 L25.5516,30.7083 Z" id="Fill-26"></path>
                <path d="M58.292,39.0565 C55.311,42.6335 51.401,44.3575 47.028,44.3575 C37.619,44.3575 30.927,37.5985 30.927,28.2555 C30.927,18.9135 37.619,12.1555 47.028,12.1555 C51.467,12.1555 55.443,14.0765 58.425,17.4555 L55.244,19.8405 C52.925,17.3225 50.208,15.7325 47.028,15.7325 C39.54,15.7325 34.902,21.3645 34.902,28.2555 C34.902,35.1475 39.54,40.7795 47.028,40.7795 C50.341,40.7795 53.19,39.0565 55.244,36.5375 L58.292,39.0565 Z" id="Fill-27"></path>
                <path d="M78.2041,28.1893 C71.5781,28.1893 64.9521,29.8453 64.9521,35.0813 C64.9521,38.8583 68.5971,40.7793 71.9091,40.7793 C80.3911,40.7793 82.5771,35.3453 82.5771,30.2443 L82.5771,28.1893 L78.2041,28.1893 Z M86.1551,30.7083 C86.1551,36.6703 86.2881,40.0503 86.7521,43.5623 L83.0411,43.5623 C82.7761,42.0383 82.6431,40.3153 82.6431,38.5913 L82.5121,38.5913 C80.2591,42.5023 76.9451,44.3573 71.7771,44.3573 C66.5421,44.3573 60.9761,41.7733 60.9761,35.2793 C60.9761,25.9373 71.9091,25.0093 77.9391,25.0093 L82.5771,25.0093 L82.5771,23.1543 C82.5771,17.8533 78.8671,15.7323 73.9641,15.7323 C70.3861,15.7323 67.3381,16.8593 64.6211,19.1783 L62.3021,16.4613 C65.2181,13.6783 69.9881,12.1553 73.9641,12.1553 C81.3851,12.1553 86.1551,15.4673 86.1551,23.2203 L86.1551,30.7083 Z" id="Fill-28"></path>
                <path d="M107.6319,15.7322 C100.1439,15.7322 95.5059,21.3642 95.5059,28.2552 C95.5059,35.1472 100.1439,40.7792 107.6319,40.7792 C114.8539,40.7792 120.4199,35.1472 120.4199,28.2552 C120.4199,21.3642 114.8539,15.7322 107.6319,15.7322 Z M120.0229,38.1952 L119.8899,38.1952 C117.4389,42.4352 112.2029,44.3572 107.6319,44.3572 C98.2229,44.3572 91.5299,37.5982 91.5299,28.2552 C91.5299,18.9142 98.2229,12.1552 107.6319,12.1552 C112.2029,12.1552 117.4389,14.0762 119.8899,18.3162 L120.0229,18.3162 L120.0229,0.2782 L123.9979,0.2782 L123.9979,43.5622 L120.0229,43.5622 L120.0229,38.1952 Z" id="Fill-29"></path>
                <path d="M154.9951,25.6717 C154.9951,20.2387 150.2911,15.7327 144.3931,15.7327 C135.7141,15.7327 133.2631,24.0807 133.2631,25.6717 L154.9951,25.6717 Z M158.0441,37.7977 C154.9301,42.4357 150.2251,44.3577 144.7921,44.3577 C135.4491,44.3577 129.2871,37.6647 129.2871,28.1897 C129.2871,19.0457 135.6471,12.1547 144.5931,12.1547 C154.0021,12.1547 158.9721,19.3767 158.9721,26.4667 L158.9721,29.2497 L133.2631,29.2497 C133.2631,32.5627 135.5811,40.7787 144.8571,40.7787 C148.8991,40.7787 153.1411,38.6587 155.1291,35.3457 L158.0441,37.7977 Z" id="Fill-30"></path>
                <path d="M164.5987,21.5633 C164.5987,19.3103 164.2667,14.5403 164.2667,12.9493 L168.2437,12.9493 C168.3087,15.2033 168.3747,17.7203 168.5077,18.3163 L168.7057,18.3163 C170.2967,14.9373 174.2057,12.1553 179.1757,12.1553 C183.2177,12.1553 186.9277,14.1423 188.3857,18.7803 C190.3077,14.2093 194.5477,12.1553 198.7887,12.1553 C208.3297,12.1553 210.4507,18.6473 210.4507,25.3403 L210.4507,43.5623 L206.4747,43.5623 L206.4747,25.5393 C206.4747,20.5703 205.0837,15.7323 198.7887,15.7323 C191.4337,15.7323 189.5127,21.9613 189.5127,26.3343 L189.5127,43.5623 L185.5357,43.5623 L185.5357,25.1413 C185.5357,19.5093 183.4827,15.7323 179.1757,15.7323 C173.2787,15.7323 168.5747,19.8403 168.5747,28.2553 L168.5747,43.5623 L164.5987,43.5623 L164.5987,21.5633 Z" id="Fill-31"></path>
                <path d="M225.4932,53.0379 C223.9702,56.9459 221.4512,59.4649 217.0782,59.4649 C215.7532,59.4649 214.4282,59.1989 213.1692,58.8679 L213.5662,55.1569 C214.6922,55.4879 215.9512,55.8869 217.1442,55.8869 C220.0592,55.8869 221.3192,53.1699 222.2462,50.7839 L225.0292,43.6939 L212.5722,12.9489 L217.0122,12.9489 L227.1492,38.7249 L237.0222,12.9489 L241.2632,12.9489 L225.4932,53.0379 Z" id="Fill-32"></path>
            </g>
            <polygon id="Fill-39" fill="#1E1E1E" points="203.226 152.143 205.348 152.143 205.348 0.999 203.226 0.999"></polygon>
            <g id="brick" transform="translate(0.000000, 42.000000)">
                <path d="M20.4043,48.0496 C28.5113,48.0496 33.7283,41.9476 33.7283,34.0816 C33.7283,26.2166 28.5113,20.1176 20.4043,20.1176 C12.2993,20.1176 7.0813,26.2166 7.0813,34.0816 C7.0813,41.9476 12.2993,48.0496 20.4043,48.0496 Z M0.0003,0.8836 L6.2603,0.8836 L6.2603,20.7556 C9.7113,16.7396 14.4463,14.3326 19.9043,14.3326 C31.7043,14.3326 39.6503,22.6806 39.6503,34.0756 C39.6503,45.3146 31.3823,53.8226 20.8673,53.8226 C14.1263,53.8226 8.5883,50.4506 6.2603,46.1976 L6.2603,52.8596 L0.0003,52.8596 L0.0003,0.8836 Z" id="Fill-33" fill="#1E1E1E"></path>
                <polygon id="Fill-34" fill="#1E1E1E" points="74.347 52.86 80.607 52.86 80.607 15.297 74.347 15.297"></polygon>
                <polygon id="Fill-35" fill="#25A7E0" points="74.475 7.161 80.752 7.161 80.752 0.884 74.475 0.884"></polygon>
                <path d="M65.5723,15.9852 C60.0253,15.8472 54.2723,19.1392 52.5783,22.4392 L52.5783,15.3022 L46.6983,15.3022 L46.6983,52.8652 L46.9753,52.8652 L50.0043,52.8652 L52.9603,52.8652 L52.9603,39.0862 C52.9603,37.5632 52.5983,29.5202 56.8033,25.6352 C59.3853,23.2512 63.1603,21.8252 67.6683,21.8252 L67.6683,16.1512 C66.5763,16.0122 66.4463,16.0062 65.5723,15.9852" id="Fill-36" fill="#1E1E1E"></path>
                <path d="M110.4903,47.6883 C109.5273,47.9233 108.5213,48.0203 107.4893,48.0203 C99.6553,48.0203 93.3183,41.9123 93.3183,34.0783 C93.3183,26.2443 99.6683,19.8933 107.5023,19.8933 C108.5323,19.8933 109.5303,20.0163 110.4983,20.2243 C113.1523,20.7063 115.5663,22.3583 117.5793,24.0763 L121.2973,20.2733 C117.5253,16.1773 112.3883,14.3333 106.8493,14.3333 C95.2913,14.3333 87.4253,22.6803 87.4253,34.0763 C87.4253,45.6353 95.2113,53.8233 106.8493,53.8233 C112.3083,53.8233 117.4453,51.9753 121.0563,47.8023 L116.9863,43.7963 C115.0573,45.5603 113.1473,47.0393 110.4903,47.6883" id="Fill-37" fill="#1E1E1E"></path>
                <polygon id="Fill-38" fill="#1E1E1E" points="160.0889 52.8592 138.7449 32.3922 156.8849 15.2962 148.1939 15.2962 134.2309 28.7992 134.2309 0.8832 127.9709 0.8832 127.9709 52.8592 134.2309 52.8592 134.2309 35.9842 151.6819 52.8592"></polygon>
            </g>
        </g>
    </g>
</svg>