<?xml version="1.0" encoding="UTF-8"?>
<svg width="575px" height="152px" viewBox="0 0 575 152" version="1.1" xmlns="http://www.w3.org/2000/svg" xmlns:xlink="http://www.w3.org/1999/xlink">
    <!-- Generator: Sketch 51.3 (57544) - http://www.bohemiancoding.com/sketch -->
    <title>chaosgroup</title>
    <desc>Created with Sketch.</desc>
    <defs></defs>
    <g id="Page-1" stroke="none" stroke-width="1" fill="none" fill-rule="evenodd">
        <g id="chaosgroup" fill="#1A1919">
            <polygon id="Fill-1" points="296 152 298 152 298 0 296 0"></polygon>
            <path d="M239.726872,75.0626695 C239.602972,75.3983239 239.387493,75.6395755 239.075048,75.8021581 C238.843409,75.9201616 238.560593,76.0014529 238.267003,76.019809 C237.965332,76.0407874 237.114191,76.0748773 235.729739,76.0748773 L228.152964,76.0748773 L228.152964,71.1423307 L235.729739,71.1423307 C237.582857,71.1737983 238.638704,71.2314889 238.913439,71.3363809 C239.279753,71.4779851 239.535634,71.7087475 239.675696,72.0339127 C239.815757,72.3564557 239.888481,72.8625596 239.888481,73.5548468 C239.888481,74.2366449 239.848079,74.7453711 239.726872,75.0626695 Z M191.860938,79.0616772 C191.739731,79.5861373 191.510785,79.9716154 191.157938,80.2312231 C190.756609,80.53541 190.153268,80.7084818 189.339835,80.8028846 C188.542564,80.8894205 186.923779,80.9339996 184.478094,80.9339996 C181.865413,80.9339996 180.11734,80.8710644 179.198862,80.7609278 C177.965245,80.6167013 177.229924,80.0529067 177.003671,79.0774111 C176.874384,78.5319726 176.804353,77.6849696 176.804353,76.49969 C176.804353,74.5303425 176.92556,73.224437 177.1572,72.5636174 C177.386146,71.9001754 177.879054,71.4779851 178.635923,71.2865572 C179.276973,71.1239746 181.227056,71.0453056 184.451159,71.0453056 C187.276625,71.0453056 189.051632,71.1056185 189.797728,71.197399 C190.522276,71.2944241 191.063666,71.5566541 191.384191,71.984089 C191.629298,72.3013874 191.809762,72.8074913 191.906727,73.4630663 C192.01716,74.1160191 192.054869,75.128227 192.054869,76.5128015 C192.054869,77.7033258 191.998306,78.5450841 191.860938,79.0616772 Z M172.179638,79.898191 C171.775615,79.024965 170.455807,78.264498 168.74275,78.1648506 C170.480049,78.0258687 172.101527,77.1788657 172.4436,76.3580858 C172.101527,77.5958114 171.255773,77.8659084 170.951409,78.1045377 C171.692117,78.605397 171.953385,79.024965 172.179638,79.898191 Z M166.178552,74.8869753 C166.068119,75.2095183 165.882269,75.4455253 165.637161,75.6054856 C165.424376,75.7208668 165.165801,75.8021581 164.90184,75.8336257 C164.602863,75.8441149 163.711319,75.8650933 162.237982,75.9018055 L153.691552,75.9018055 L153.691552,71.1423307 L162.229902,71.1423307 C163.622434,71.1423307 164.457415,71.1659314 164.764472,71.1869098 C165.047288,71.197399 165.31125,71.2577119 165.518648,71.3494924 C165.820318,71.4989635 166.038491,71.721859 166.151617,72.0339127 C166.278211,72.3459665 166.337468,72.8153582 166.337468,73.4630663 C166.337468,74.0871738 166.278211,74.5722993 166.178552,74.8869753 Z M147.615049,74.6981697 L134.508547,74.6981697 L134.508547,78.5870409 L142.483959,78.5870409 C142.483959,78.8440263 142.505506,79.024965 142.505506,79.1141233 C142.505506,79.6805401 142.44625,80.0974858 142.311575,80.370205 C142.193062,80.6455466 141.996438,80.8448414 141.708235,80.9759564 C141.350001,81.1096937 140.851706,81.2014742 140.280687,81.2381864 C139.67196,81.269654 137.996611,81.3011216 135.241176,81.3142331 C132.42379,81.2880101 130.743054,81.2381864 130.19897,81.1831181 C129.662967,81.1228052 129.242783,80.9759564 128.916871,80.7084818 C128.580186,80.448874 128.3674,79.9925938 128.246193,79.3422634 C128.133067,78.6971775 128.079197,77.5407431 128.079197,75.9122947 C128.079197,74.4464289 128.133067,73.4184872 128.246193,72.8153582 C128.3674,72.2174738 128.580186,71.7847942 128.916871,71.4989635 C129.242783,71.2577119 129.870365,71.0793955 130.756522,70.987615 C131.65884,70.8984568 133.159111,70.8381439 135.254643,70.8381439 C137.204727,70.8381439 138.691531,70.8722338 139.709668,70.9404136 C140.781676,70.9928596 141.498143,71.1423307 141.837522,71.38096 C142.015292,71.4989635 142.141886,71.6746576 142.187675,71.8608409 C142.249625,72.0601357 142.284641,72.4403693 142.292721,72.9962969 L147.615049,72.9962969 L147.615049,74.6981697 Z M244.954928,68.2997573 C244.251928,67.3268839 242.921346,66.6975319 240.944327,66.4484133 C240.160523,66.3277875 238.420531,66.2910753 235.718965,66.2910753 L217.036949,66.2910753 L217.036949,75.1964068 C217.036949,75.7654459 217.015401,76.4813339 216.972305,77.3519375 C216.923822,78.2015628 216.853792,78.7994472 216.75952,79.1613247 C216.670634,79.5153352 216.503638,79.8037882 216.285466,80.0529067 C215.946087,80.4069172 215.369681,80.640302 214.550861,80.7556832 C213.734735,80.8710644 212.280253,80.9339996 210.165867,80.9339996 C207.58012,80.9339996 205.869757,80.8081292 205.010535,80.5799891 C204.145926,80.3413597 203.634164,79.8431227 203.491409,79.0826557 C203.367509,78.5319726 203.308252,77.2549124 203.265156,75.1964068 L203.265156,66.2910753 L197.633078,66.2910753 C197.832396,66.9204274 198.524622,69.3355658 198.298369,72.4298801 C198.222951,70.7568525 196.959706,66.8522476 193.320807,66.3041868 C191.685861,66.0681798 188.723027,66 184.432304,66 C180.11734,66 177.1572,66.0970251 175.554576,66.3041868 C174.326346,66.4693917 173.359385,66.8706037 172.640224,67.4579989 C172.863783,68.5803434 172.947282,70.1458566 172.80722,72.1099594 C172.80722,70.8171655 172.4436,69.3644111 171.44701,68.1188186 C170.431566,66.8706037 168.885505,66.5611722 167.700371,66.4484133 C167.005452,66.3828558 165.731433,66.2989422 162.289159,66.2910753 L147.787432,66.2910753 C148.083715,67.0620316 148.617025,68.8556849 148.447336,71.4989635 C148.358451,69.957051 147.480374,68.3023796 146.211743,67.4711104 C144.910789,66.5900175 143.195039,66.2989422 141.754024,66.1730718 C140.286074,66.0603129 138.295588,66 135.804114,66 C131.559181,66 128.418576,66.1730718 126.376914,66.5218377 C125.366857,66.6975319 124.54265,67.056787 123.904294,67.5707578 C124.073984,68.6485232 124.173643,70.1327451 123.904294,71.9473768 C123.836957,70.5392016 123.389839,69.2595191 123.088168,68.5147859 C122.956187,68.7534152 122.81882,68.9841776 122.705693,69.2490299 C122.422877,69.9649179 122.247801,70.7804532 122.142755,71.6746576 C122.040402,72.5767289 122,73.9219689 122,75.6972661 C122,78.2959656 122.05387,80.0476621 122.175077,80.9261327 C122.29359,81.8754054 122.500988,82.6306278 122.799965,83.2049116 C122.907705,83.409451 123.045072,83.5851451 123.160892,83.7477277 C123.36021,83.4251848 123.94739,82.273995 124.044356,80.5957229 C124.238287,82.4418222 124.106306,83.6900371 123.936616,84.4924609 C124.006647,84.5501515 124.044356,84.6025976 124.106306,84.6393098 C124.933206,85.1899928 126.056389,85.5308918 127.470469,85.7223197 C128.90071,85.908503 131.314073,85.995039 134.745574,85.995039 C137.449834,85.995039 139.451094,85.9425929 140.781676,85.8901469 C143.978843,85.7354312 145.737689,85.1034569 146.672329,84.1568065 C147.903252,82.8981024 148.646654,81.1096937 148.692443,80.1446872 C148.837891,83.2232677 147.852076,85.200482 147.593501,85.7039636 L153.691552,85.7039636 L153.691552,80.7556832 L162.256837,80.7556832 C163.503921,80.7556832 164.344288,80.7845285 164.745618,80.8448414 C165.122706,80.9077766 165.440537,81.0546254 165.664096,81.2880101 C165.882269,81.531884 166.038491,81.8911392 166.119295,82.3500417 C166.197406,82.8089442 166.235115,83.5851451 166.235115,84.6629105 L166.235115,85.7039636 L172.947282,85.7039636 C172.659079,84.8307377 172.368182,83.5090984 172.4436,81.7075781 C172.551339,83.3701165 173.830745,85.4679566 176.314139,85.7537873 C178.021809,85.9714383 180.755697,85.995039 184.478094,85.995039 C188.749962,85.995039 191.720877,86.0658411 193.320807,85.672496 C197.827009,84.6261983 198.222951,80.2364677 198.266047,79.1691916 C198.597346,80.8894205 198.360319,82.5021351 198.201403,83.3937172 C198.837066,84.405925 199.841736,85.0719893 201.271977,85.4023991 C202.244325,85.6279169 203.367509,85.7800103 204.679236,85.8613016 C205.969416,85.9425929 207.844082,85.995039 210.249365,85.995039 C213.449226,85.995039 215.744075,85.9111253 217.155462,85.7642765 C218.558768,85.6121831 219.514955,85.305374 220.282599,84.8490938 C221.812499,83.9496448 223.040728,81.7259342 223.078437,79.4419108 C223.549797,81.8911392 223.003019,84.3901912 222.634012,85.7039636 L228.152964,85.7039636 L228.152964,80.9339996 L235.783609,80.9339996 C238.145796,80.9339996 239.767274,80.8841759 240.626496,80.7845285 C241.830484,80.6639027 242.794752,80.422651 243.495058,80.0896189 C244.206139,79.740853 244.75561,79.2347491 245.127311,78.5870409 C245.69833,77.6220344 246,75.9437623 246,73.5548468 C246,71.0243272 245.633686,69.267386 244.954928,68.2997573 Z" id="Fill-2"></path>
            <path d="M104.594451,73.9345494 C101.713054,74.3074034 100.2413,76.9415236 100.2413,79.6829399 C99.8848382,76.3594421 100.927218,74.1598712 101.235071,73.6233906 C101.221569,73.1915236 101.202666,72.7864807 101.175661,72.4109442 L106.576593,72.4109442 C106.587395,71.8583691 106.638704,71.5016094 106.711616,71.292382 C106.776428,71.0992489 106.927654,70.9302575 107.13559,70.8122318 C107.392134,70.65397 107.845812,70.554721 108.485823,70.5171674 C109.128533,70.4742489 110.513873,70.4420601 112.625637,70.4420601 C115.166776,70.4420601 116.695239,70.5198498 117.254236,70.6861588 C117.797029,70.8310086 118.077878,71.2736052 118.077878,71.9790773 C118.077878,72.6684549 117.797029,73.0842275 117.254236,73.2424893 C116.787055,73.360515 114.683392,73.4839056 110.940546,73.5912017 C107.770199,73.6958155 105.658435,73.792382 104.594451,73.9345494 Z M95.1401193,79.0579399 C95.0077965,79.5783262 94.772856,79.9645923 94.4406986,80.2381974 C94.0518315,80.514485 93.4631299,80.707618 92.6691929,80.806867 C91.8887582,80.8766094 90.2900823,80.9222103 87.9190731,80.9222103 C85.3644322,80.9222103 83.630733,80.8578326 82.755782,80.7585837 C81.5540747,80.6137339 80.8303498,80.055794 80.6035106,79.0579399 C80.4711878,78.5402361 80.414478,77.681867 80.414478,76.5042918 C80.414478,74.5488197 80.5278976,73.2424893 80.7493358,72.5906652 C80.9788754,71.930794 81.4730607,71.5016094 82.2021865,71.3353004 C82.8286946,71.1689914 84.7352237,71.0724249 87.8623633,71.0724249 C90.6492443,71.0724249 92.380243,71.1368026 93.1039679,71.2280043 C93.8249924,71.3353004 94.3434819,71.5793991 94.6567359,71.9978541 C94.9078793,72.3358369 95.0834096,72.8240343 95.1779259,73.4839056 C95.2670412,74.1276824 95.3183501,75.1469957 95.3183501,76.5418455 C95.3183501,77.708691 95.2670412,78.5402361 95.1401193,79.0579399 Z M24.2852912,78.2156652 L18.970774,78.2156652 C18.9518707,79.4146996 18.7817414,80.1899142 18.4306808,80.514485 C18.1471318,80.7773605 17.6421447,80.9383047 16.8779128,81.0187768 C16.1190818,81.1019313 14.6122218,81.1341202 12.3222266,81.1341202 C10.4913106,81.1341202 9.20048783,81.0885193 8.47136199,81 C7.73683523,80.9222103 7.20754388,80.7585837 6.87268609,80.4903433 C6.51892504,80.2381974 6.28398449,79.7902361 6.16516399,79.2001073 C6.02473975,78.5831545 5.96802997,77.5584764 5.96802997,76.0885193 C5.96802997,74.6292918 6.04364302,73.5536481 6.18946818,72.8857296 C6.30828869,72.1990343 6.55673156,71.7296137 6.91049262,71.4479614 C7.20754388,71.1984979 7.7233329,71.0375536 8.4389564,70.9597639 C9.14647851,70.8873391 10.4291999,70.8310086 12.289821,70.8310086 C14.1666449,70.8310086 15.5681868,70.8873391 16.502548,70.9839056 C17.4234069,71.0724249 17.9959057,71.2119099 18.2200444,71.4050429 C18.3901738,71.5606223 18.4927915,71.7376609 18.5413999,71.9603004 C18.5981097,72.1775751 18.6413171,72.6040773 18.6629209,73.2559013 L24.2852912,73.2559013 L24.2852912,78.2156652 Z M118.231805,79.2752146 C118.250708,80.2381974 118.040071,80.8524678 117.643103,81.126073 C117.356854,81.2896996 116.98689,81.4077253 116.530511,81.445279 C116.087634,81.4881974 114.650987,81.5150215 112.234069,81.5284335 C109.730737,81.5150215 108.210375,81.4962446 107.699987,81.4694206 C107.203101,81.4533262 106.806133,81.3755365 106.49828,81.2548283 C106.063505,81.0777897 105.852868,80.5842275 105.852868,79.776824 C105.852868,79.2215665 106.014896,78.8272532 106.317348,78.6314378 C106.627902,78.4356223 107.257111,78.3390558 108.210375,78.320279 C108.947602,78.320279 110.505771,78.2585837 112.884882,78.1351931 C115.3099,78.027897 116.889673,77.9635193 117.635002,77.9501073 C119.07435,77.8937768 120.17344,77.7650215 120.940372,77.5396996 C121.701903,77.3116953 122.293305,76.9522532 122.733481,76.4533262 C123.465308,75.6030043 123.82717,74.2188841 123.82717,72.2714592 C123.82717,70.0745708 123.4194,68.5375536 122.582255,67.6496781 C121.936844,66.9388412 120.959275,66.4801502 119.638747,66.2896996 C118.304717,66.0938841 115.59885,66 111.54005,66 C108.664053,66 106.646805,66.0858369 105.491006,66.2333691 C103.681693,66.498927 102.461083,66.9817597 101.794068,67.7381974 C101.324187,68.2559013 101.016333,69.0633047 100.886711,70.1040773 C100.838103,69.9189914 100.802997,69.723176 100.757089,69.556867 C100.235899,67.7194206 98.8370574,66.6437768 96.5524631,66.3379828 C94.9834923,66.1421674 92.0831918,66.0321888 87.8623633,66.0321888 C83.630733,66.0321888 80.7412344,66.1421674 79.1749641,66.3379828 C76.8876693,66.6437768 75.483427,67.7194206 74.9757394,69.556867 C74.6165774,70.8256438 74.4518489,72.9313305 74.4518489,75.8846567 C74.4518489,77.056867 74.4599503,78.0895923 74.5193606,78.9962446 L67.846509,66.305794 L58.5947123,66.305794 L50.2367699,81.944206 L50.2367699,66.305794 L44.0040943,66.305794 L44.0040943,73.2559013 L30.5179668,73.2559013 L30.5179668,66.305794 L24.2852912,66.305794 L24.2852912,66.3084764 C24.4878261,66.9388412 24.9144998,68.6609442 24.7821769,71.5016094 C24.736269,70.6190987 24.2231805,68.0761803 22.2005314,66.8825107 C21.5686223,66.5177039 20.6180583,66.2896996 19.4730607,66.1743562 C18.333464,66.0536481 16.5106494,66 13.9884141,66 C8.94394355,66 5.58726425,66.1824034 3.9372795,66.5445279 C2.28999521,66.9254292 1.1693018,67.7113734 0.640010453,68.9372318 C0.388867111,69.4871245 0.21873775,70.2703863 0.132322836,71.2601931 C0.0513088549,72.2553648 0,73.8809013 0,76.126073 C0,78.4222103 0.0513088549,80.0155579 0.132322836,80.8953863 C0.243041944,82.0059013 0.475282024,82.8428112 0.818241213,83.4758584 C1.1693018,84.0928112 1.71479594,84.5997854 2.43311991,84.9726395 C3.22705693,85.3857296 4.42336339,85.6486052 5.99233416,85.7934549 C7.57750773,85.9383047 10.2104621,86 13.9479071,86 C17.4720153,86 19.9726469,85.8310086 21.4119953,85.5064378 C23.0457773,85.1389485 24.0125441,84.0633047 24.2852912,83.6850858 C24.5607387,83.3122318 25.3168692,81.8878755 25.4221874,80.3025751 C25.5680125,83.958691 24.2852912,85.707618 24.2852912,85.707618 L30.5179668,85.707618 L30.5179668,78.6770386 L44.0040943,78.6770386 L44.0040943,85.707618 L55.0300971,85.707618 L56.709787,82.4270386 L58.8242519,78.1781116 L62.5806002,70.8122318 L63.7850081,70.8122318 L67.5386559,78.1781116 L69.6288166,82.4270386 L71.3085065,85.707618 L76.5717148,85.707618 C75.7588745,84.9994635 74.962237,83.5751073 74.846117,81.2896996 C75.1809748,84.251073 78.1730912,85.5225322 79.1749641,85.6620172 C80.7493358,85.8792918 83.6685396,85.973176 87.9190731,85.973176 C92.0966941,85.973176 94.9834923,85.873927 96.5524631,85.6620172 C98.5886145,85.3857296 99.9199442,84.5085837 100.549153,83.0252146 C100.624766,83.2559013 100.719282,83.4946352 100.830001,83.6850858 C101.216168,84.3422747 101.726556,84.8331545 102.377368,85.1523605 C103.047084,85.4822961 103.976044,85.6888412 105.183153,85.806867 C106.468574,85.9114807 108.869289,85.973176 112.374494,85.973176 C115.3099,85.973176 117.486476,85.8927039 118.888018,85.7424893 C120.29226,85.5922747 121.326539,85.3320815 122.047563,84.943133 C122.765887,84.5085837 123.278976,83.972103 123.567925,83.2961373 C123.846073,82.6121245 124,81.5633047 124,80.1845494 L124,79.2752146 L118.231805,79.2752146 Z" id="Fill-3"></path>
            <path d="M355.038894,53.9067164 L351.388265,63.9423715 L358.638558,63.9423715 L355.038894,53.9067164 Z M360.792456,70 L359.239396,65.7042565 L350.760604,65.7042565 L349.207544,70 L347,70 L354.140319,51 L355.886505,51 L363,70 L360.792456,70 Z" id="Fill-4"></path>
            <path d="M372.984755,70 C368.929717,70 366,67.3802083 366,63.625 L366,51 L368.139774,51 L368.139774,63.4635417 C368.139774,66.3229167 370.05781,68.203125 372.984755,68.203125 C375.914472,68.203125 377.860226,66.3229167 377.860226,63.4635417 L377.860226,51 L380,51 L380,63.625 C380,67.3802083 377.042566,70 372.984755,70" id="Fill-5"></path>
            <polyline id="Fill-6" points="390.511694 52.8117745 390.511694 70 388.488306 70 388.488306 52.8117745 383 52.8117745 383 51 396 51 396 52.8117745 390.511694 52.8117745"></polyline>
            <polyline id="Fill-7" points="409.982129 70 409.982129 61.3271144 401.015261 61.3271144 401.015261 70 399 70 399 51 401.015261 51 401.015261 59.5100884 409.982129 59.5100884 409.982129 51 412 51 412 70 409.982129 70"></polyline>
            <path d="M427.456432,54.0965067 C426.529737,53.2313443 425.348548,52.7845589 423.998617,52.7845589 C422.651452,52.7845589 421.470263,53.2313443 420.540802,54.0965067 C419.276625,55.3051516 419.135546,56.6687508 419.135546,60.4987087 C419.135546,64.3338317 419.276625,65.697431 420.540802,66.9034933 C421.470263,67.7712383 422.651452,68.2180237 423.998617,68.2180237 C425.348548,68.2180237 426.529737,67.7712383 427.456432,66.9034933 C428.723375,65.697431 428.864454,64.3338317 428.864454,60.4987087 C428.864454,56.6687508 428.723375,55.3051516 427.456432,54.0965067 Z M428.975104,68.1637896 C427.738589,69.3182004 426.078838,70 423.998617,70 C421.918396,70 420.233748,69.3182004 418.994467,68.1637896 C417.113416,66.4050564 417,64.7780345 417,60.4987087 C417,56.2219655 417.113416,54.5949436 418.994467,52.8362104 C420.233748,51.6817996 421.918396,51 423.998617,51 C426.078838,51 427.738589,51.6817996 428.975104,52.8362104 C430.858921,54.5949436 431,56.2219655 431,60.4987087 C431,64.7780345 430.858921,66.4050564 428.975104,68.1637896 Z" id="Fill-8"></path>
            <path d="M443.479945,52.8117745 L438.135546,52.8117745 L438.135546,59.777916 L443.479945,59.777916 C445.811895,59.777916 447.46888,58.6304588 447.46888,56.3119127 C447.46888,53.988115 445.811895,52.8117745 443.479945,52.8117745 Z M447.499308,70 L442.943292,61.5686844 L438.135546,61.5686844 L438.135546,70 L436,70 L436,51 L443.676349,51 C447.161826,51 449.607192,53.0008292 449.607192,56.2830293 C449.607192,59.0584577 447.836791,60.8728579 445.250346,61.3796296 L450,70 L447.499308,70 Z" id="Fill-9"></path>
            <polygon id="Fill-10" points="453 70 455 70 455 51 453 51"></polygon>
            <polyline id="Fill-11" points="460 70 460 68.0779436 469.667854 52.8117745 460.382012 52.8117745 460.382012 51 472 51 472 52.7067441 462.254675 68.182974 472 68.182974 472 70 460 70"></polyline>
            <polyline id="Fill-12" points="476 70 476 51 488 51 488 52.8117745 478.062792 52.8117745 478.062792 59.5100884 486.535738 59.5100884 486.535738 61.3271144 478.062792 61.3271144 478.062792 68.182974 488 68.182974 488 70 476 70"></polyline>
            <path d="M501.513944,54.2034273 C500.496016,53.134743 499.076494,52.8117745 497.545418,52.8117745 L493.152988,52.8117745 L493.152988,68.182974 L497.545418,68.182974 C499.076494,68.182974 500.496016,67.865257 501.513944,66.7965727 C502.819124,65.4889442 502.847012,63.1415146 502.847012,60.4973742 C502.847012,57.8558596 502.819124,55.5084301 501.513944,54.2034273 Z M503.215139,67.9991708 C501.854183,69.3855721 500.183665,70 497.916335,70 L491,70 L491,51 L497.916335,51 C500.183665,51 501.854183,51.6118021 503.215139,53.0008292 C505,54.8152294 505,57.5906578 505,60.4973742 C505,63.4093422 505,66.1821448 503.215139,67.9991708 Z" id="Fill-13"></path>
            <polyline id="Fill-14" points="354.514315 83.8144002 354.514315 101 352.488306 101 352.488306 83.8144002 347 83.8144002 347 82 360 82 360 83.8144002 354.514315 83.8144002"></polyline>
            <path d="M372.479945,83.8144002 L367.135546,83.8144002 L367.135546,90.777916 L372.479945,90.777916 C374.811895,90.777916 376.46888,89.6330846 376.46888,87.3119127 C376.46888,84.988115 374.811895,83.8144002 372.479945,83.8144002 Z M376.499308,101 L371.943292,92.5686844 L367.135546,92.5686844 L367.135546,101 L365,101 L365,82 L372.676349,82 C376.161826,82 378.607192,84.0008292 378.607192,87.2830293 C378.607192,90.0584577 376.836791,91.8728579 374.250346,92.3822554 L379,101 L376.499308,101 Z" id="Fill-15"></path>
            <path d="M389.041576,84.9093422 L385.388265,94.9423715 L392.638558,94.9423715 L389.041576,84.9093422 Z M394.792456,101 L393.239396,96.7042565 L384.760604,96.7042565 L383.207544,101 L381,101 L388.143001,82 L389.886505,82 L397,101 L394.792456,101 Z" id="Fill-16"></path>
            <polygon id="Fill-17" points="400 101 402 101 402 82 400 82"></polygon>
            <polyline id="Fill-18" points="420.085313 101 410.022077 85.7627142 410.022077 101 408 101 408 82 409.914687 82 419.977923 97.1847706 419.977923 82 422 82 422 101 420.085313 101"></polyline>
            <polygon id="Fill-19" points="427 101 429 101 429 82 427 82"></polygon>
            <polyline id="Fill-20" points="446.085313 101 436.022077 85.7627142 436.022077 101 434 101 434 82 435.917306 82 445.977923 97.1847706 445.977923 82 448 82 448 101 446.085313 101"></polyline>
            <path d="M465.291675,98.8487155 C463.89195,100.292375 462.015548,101 459.971069,101 C457.899036,101 456.218264,100.320783 454.986617,99.1637896 C453.110215,97.407639 453,95.7806171 453,91.5012913 C453,87.2219655 453.110215,85.5949436 454.986617,83.838793 C456.218264,82.6817996 457.899036,82 459.971069,82 C463.723873,82 466.382799,84.3630556 466.942137,87.5912736 L464.814997,87.5912736 C464.255658,85.2023923 462.461917,83.7845589 459.971069,83.7845589 C458.598898,83.7845589 457.422358,84.2313443 456.526865,85.0965067 C455.267664,86.3051516 455.12714,87.6687508 455.12714,91.5012913 C455.12714,95.3338317 455.267664,96.697431 456.526865,97.9034933 C457.422358,98.7712383 458.598898,99.2180237 459.971069,99.2180237 C461.4259,99.2180237 462.82838,98.6653527 463.751427,97.6168275 C464.564259,96.6690227 464.870104,95.6489058 464.870104,94.2310724 L464.870104,92.7874133 L459.971069,92.7874133 L459.971069,91.0803317 L467,91.0803317 L467,94.0477097 C467,96.1989942 466.581185,97.510942 465.291675,98.8487155" id="Fill-21"></path>
            <path d="M484.027778,101 C481.938889,101 480.244444,100.320783 479.002778,99.1637896 C477.111111,97.407639 477,95.7806171 477,91.5012913 C477,87.2219655 477.111111,85.5949436 479.002778,83.838793 C480.244444,82.6817996 481.938889,82 484.027778,82 C487.669444,82 490.294444,84.0738073 491,87.5628653 L488.797222,87.5628653 C488.263889,85.2566263 486.538889,83.7845589 484.027778,83.7845589 C482.672222,83.7845589 481.488889,84.2313443 480.555556,85.0965067 C479.286111,86.3051516 479.144444,87.6687508 479.144444,91.5012913 C479.144444,95.3338317 479.286111,96.697431 480.555556,97.9034933 C481.488889,98.7712383 482.672222,99.2180237 484.027778,99.2180237 C486.538889,99.2180237 488.319444,97.7485388 488.855556,95.4371347 L491,95.4371347 C490.294444,98.9261927 487.641667,101 484.027778,101" id="Fill-22"></path>
            <polyline id="Fill-23" points="494 101 494 82 506 82 506 83.8144002 496.062333 83.8144002 496.062333 90.5100884 504.533393 90.5100884 504.533393 92.3271144 496.062333 92.3271144 496.062333 99.182974 506 99.182974 506 101 494 101"></polyline>
            <polyline id="Fill-24" points="522.083053 101 512.021698 85.7627142 512.021698 101 510 101 510 82 511.916947 82 521.975683 97.1847706 521.975683 82 524 82 524 101 522.083053 101"></polyline>
            <polyline id="Fill-25" points="535.514315 83.8144002 535.514315 101 533.488306 101 533.488306 83.8144002 528 83.8144002 528 82 541 82 541 83.8144002 535.514315 83.8144002"></polyline>
            <polyline id="Fill-26" points="545 101 545 82 557 82 557 83.8144002 547.062333 83.8144002 547.062333 90.5100884 555.533393 90.5100884 555.533393 92.3271144 547.062333 92.3271144 547.062333 99.182974 557 99.182974 557 101 545 101"></polyline>
            <path d="M568.479945,83.8144002 L563.135546,83.8144002 L563.135546,90.777916 L568.479945,90.777916 C570.811895,90.777916 572.46888,89.6330846 572.46888,87.3119127 C572.46888,84.988115 570.811895,83.8144002 568.479945,83.8144002 Z M572.499308,101 L567.943292,92.5686844 L563.135546,92.5686844 L563.135546,101 L561,101 L561,82 L568.676349,82 C572.161826,82 574.607192,84.0008292 574.607192,87.2830293 C574.607192,90.0584577 572.836791,91.8728579 570.250346,92.3822554 L575,101 L572.499308,101 Z" id="Fill-27"></path>
        </g>
    </g>
</svg>