<?xml version="1.0" encoding="UTF-8"?>
<svg width="380px" height="141px" viewBox="0 0 380 141" version="1.1" xmlns="http://www.w3.org/2000/svg" xmlns:xlink="http://www.w3.org/1999/xlink">
    <!-- Generator: Sketch 51.3 (57544) - http://www.bohemiancoding.com/sketch -->
    <title>keklogo</title>
    <desc>Created with Sketch.</desc>
    <defs>
        <polygon id="path-1" points="0 227 425.197 227 425.197 0.228 0 0.228"></polygon>
    </defs>
    <g id="Page-1" stroke="none" stroke-width="1" fill="none" fill-rule="evenodd">
        <g id="keklogo" transform="translate(-23.000000, -42.228000)">
            <path d="M45.0066,154.5387 C37.6046,154.5387 31.5826,160.5597 31.5826,167.9627 C31.5826,175.3647 37.6046,181.3867 45.0066,181.3867 C52.4086,181.3867 58.4306,175.3647 58.4306,167.9627 C58.4306,160.5597 52.4086,154.5387 45.0066,154.5387 M45.0066,182.8867 C36.7776,182.8867 30.0826,176.1917 30.0826,167.9627 C30.0826,159.7327 36.7776,153.0387 45.0066,153.0387 C53.2356,153.0387 59.9306,159.7327 59.9306,167.9627 C59.9306,176.1917 53.2356,182.8867 45.0066,182.8867" id="Fill-8" fill="#286AA6"></path>
            <polygon id="Fill-10" fill="#286AA6" points="120.1653 97.8483 106.8883 97.8483 106.8883 96.3483 118.6653 96.3483 118.6653 89.8613 120.1653 89.8613"></polygon>
            <polygon id="Fill-12" fill="#286AA6" points="102.4905 95.9743 100.9905 95.9743 100.9905 82.1733 120.1655 82.1733 120.1655 85.7693 118.6655 85.7693 118.6655 83.6733 102.4905 83.6733"></polygon>
            <mask id="mask-2" fill="white">
                <use xlink:href="#path-1"></use>
            </mask>
            <g id="Clip-15"></g>
            <path d="M70.561,117.607 L76.148,117.607 L76.148,112.019 L70.561,112.019 L70.561,117.607 Z M69.061,119.107 L77.648,119.107 L77.648,110.519 L69.061,110.519 L69.061,119.107 Z" id="Fill-14" fill="#286AA6" mask="url(#mask-2)"></path>
            <path d="M95.308,78.63 L100.991,78.63 L100.991,73.045 L95.308,73.045 L95.308,78.63 Z M93.808,80.13 L102.491,80.13 L102.491,71.545 L93.808,71.545 L93.808,80.13 Z" id="Fill-16" fill="#286AA6" mask="url(#mask-2)"></path>
            <path d="M45.0066,161.6257 C41.5126,161.6257 38.6696,164.4687 38.6696,167.9627 C38.6696,171.4567 41.5126,174.2997 45.0066,174.2997 C48.5006,174.2997 51.3436,171.4567 51.3436,167.9627 C51.3436,164.4687 48.5006,161.6257 45.0066,161.6257 M45.0066,175.7997 C40.6856,175.7997 37.1696,172.2837 37.1696,167.9627 C37.1696,163.6417 40.6856,160.1257 45.0066,160.1257 C49.3276,160.1257 52.8436,163.6417 52.8436,167.9627 C52.8436,172.2837 49.3276,175.7997 45.0066,175.7997" id="Fill-17" fill="#286AA6" mask="url(#mask-2)"></path>
            <path d="M45.0066,166.9411 C44.4436,166.9411 43.9856,167.3991 43.9856,167.9621 C43.9856,168.5261 44.4436,168.9841 45.0066,168.9841 C45.5696,168.9841 46.0286,168.5261 46.0286,167.9621 C46.0286,167.3991 45.5696,166.9411 45.0066,166.9411 M45.0066,170.4841 C43.6166,170.4841 42.4856,169.3531 42.4856,167.9621 C42.4856,166.5721 43.6166,165.4411 45.0066,165.4411 C46.3976,165.4411 47.5286,166.5721 47.5286,167.9621 C47.5286,169.3531 46.3976,170.4841 45.0066,170.4841" id="Fill-18" fill="#286AA6" mask="url(#mask-2)"></path>
            <path d="M174.7984,75.3019 C173.8164,74.7119 173.0374,73.9159 172.4664,72.9149 C171.8944,71.9139 171.6084,70.8229 171.6084,69.6439 L171.6084,63.3689 C171.6084,62.1899 171.8944,61.0999 172.4664,60.0979 C173.0374,59.0969 173.8164,58.3019 174.7984,57.7119 C175.7814,57.1219 176.8544,56.8269 178.0164,56.8269 C178.9634,56.8269 179.8494,56.9919 180.6714,57.3229 C181.4924,57.6539 182.2174,58.1319 182.8434,58.7579 C182.9324,58.8289 182.9774,58.9369 182.9774,59.0789 C182.9774,59.2039 182.9324,59.3209 182.8434,59.4279 C182.4674,59.8569 182.2264,60.1249 182.1184,60.2329 C181.9934,60.3229 181.8684,60.3659 181.7434,60.3659 C181.6004,60.3659 181.4664,60.3039 181.3414,60.1789 C180.4474,59.3209 179.3484,58.8919 178.0434,58.8919 C177.2754,58.8919 176.5694,59.0969 175.9254,59.5079 C175.2814,59.9199 174.7724,60.4699 174.3974,61.1569 C174.0214,61.8459 173.8334,62.5829 173.8334,63.3689 L173.8334,69.6439 C173.8334,70.4309 174.0214,71.1679 174.3974,71.8569 C174.7724,72.5439 175.2814,73.0939 175.9254,73.5049 C176.5694,73.9159 177.2754,74.1219 178.0434,74.1219 C179.3484,74.1219 180.4474,73.6929 181.3414,72.8349 C181.4664,72.7099 181.6004,72.6479 181.7434,72.6479 C181.8684,72.6479 181.9934,72.6919 182.1184,72.7809 C182.2264,72.8889 182.4674,73.1559 182.8434,73.5859 C182.9324,73.6749 182.9774,73.7909 182.9774,73.9349 C182.9774,74.0599 182.9324,74.1669 182.8434,74.2559 C182.2174,74.8819 181.4924,75.3599 180.6714,75.6909 C179.8494,76.0209 178.9634,76.1869 178.0164,76.1869 C176.8544,76.1869 175.7814,75.8919 174.7984,75.3019" id="Fill-19" fill="#286AA6" mask="url(#mask-2)"></path>
            <path d="M197.4166,73.505 C198.0866,73.094 198.6186,72.544 199.0126,71.857 C199.4046,71.168 199.6026,70.431 199.6026,69.644 L199.6026,63.397 C199.6026,62.609 199.4046,61.872 199.0126,61.184 C198.6186,60.496 198.0866,59.946 197.4166,59.535 C196.7456,59.124 196.0176,58.918 195.2306,58.918 C194.4436,58.918 193.7166,59.124 193.0456,59.535 C192.3756,59.946 191.8436,60.496 191.4506,61.184 C191.0576,61.872 190.8606,62.609 190.8606,63.397 L190.8606,69.644 C190.8606,70.431 191.0576,71.168 191.4506,71.857 C191.8436,72.544 192.3756,73.094 193.0456,73.505 C193.7166,73.916 194.4436,74.122 195.2306,74.122 C196.0176,74.122 196.7456,73.916 197.4166,73.505 M191.9466,75.302 C190.9366,74.712 190.1366,73.916 189.5466,72.915 C188.9566,71.914 188.6616,70.823 188.6616,69.644 L188.6616,63.397 C188.6616,62.217 188.9566,61.126 189.5466,60.125 C190.1366,59.124 190.9366,58.328 191.9466,57.738 C192.9566,57.149 194.0516,56.854 195.2306,56.854 C196.4106,56.854 197.5056,57.149 198.5166,57.738 C199.5256,58.328 200.3256,59.124 200.9156,60.125 C201.5056,61.126 201.8006,62.217 201.8006,63.397 L201.8006,69.644 C201.8006,70.823 201.5056,71.914 200.9156,72.915 C200.3256,73.916 199.5256,74.712 198.5166,75.302 C197.5056,75.892 196.4106,76.187 195.2306,76.187 C194.0516,76.187 192.9566,75.892 191.9466,75.302" id="Fill-20" fill="#286AA6" mask="url(#mask-2)"></path>
            <path d="M209.0132,75.7306 C208.9422,75.6596 208.9062,75.5696 208.9062,75.4626 L208.9062,57.7656 C208.9062,57.6046 208.9592,57.4706 209.0672,57.3636 C209.1742,57.2556 209.3082,57.2026 209.4692,57.2026 L211.0512,57.2026 C211.1942,57.2026 211.3272,57.2336 211.4532,57.2956 C211.5772,57.3586 211.6762,57.4536 211.7482,57.5776 L220.2212,72.3786 L220.2212,57.5776 C220.2212,57.4706 220.2572,57.3806 220.3282,57.3096 C220.4002,57.2386 220.4902,57.2026 220.5972,57.2026 L221.9382,57.2026 C222.0442,57.2026 222.1342,57.2386 222.2052,57.3096 C222.2772,57.3806 222.3132,57.4706 222.3132,57.5776 L222.3132,75.2746 C222.3132,75.4356 222.2592,75.5696 222.1522,75.6766 C222.0442,75.7846 221.9102,75.8376 221.7492,75.8376 L220.1412,75.8376 C219.9972,75.8376 219.8642,75.8066 219.7392,75.7446 C219.6142,75.6816 219.5152,75.5876 219.4442,75.4626 L210.9972,60.6876 L210.9972,75.4626 C210.9972,75.5696 210.9612,75.6596 210.8902,75.7306 C210.8192,75.8026 210.7292,75.8376 210.6212,75.8376 L209.2822,75.8376 C209.1742,75.8376 209.0842,75.8026 209.0132,75.7306" id="Fill-21" fill="#286AA6" mask="url(#mask-2)"></path>
            <path d="M233.7086,75.7306 C233.6366,75.6596 233.6016,75.5696 233.6016,75.4626 L233.6016,59.2666 L228.9626,59.2666 C228.8546,59.2666 228.7656,59.2316 228.6936,59.1596 C228.6226,59.0876 228.5866,58.9996 228.5866,58.8916 L228.5866,57.5776 C228.5866,57.4706 228.6226,57.3806 228.6936,57.3096 C228.7656,57.2386 228.8546,57.2026 228.9626,57.2026 L240.4376,57.2026 C240.5456,57.2026 240.6356,57.2386 240.7066,57.3096 C240.7776,57.3806 240.8136,57.4706 240.8136,57.5776 L240.8136,58.8916 C240.8136,58.9996 240.7776,59.0876 240.7066,59.1596 C240.6356,59.2316 240.5456,59.2666 240.4376,59.2666 L235.7996,59.2666 L235.7996,75.4626 C235.7996,75.5696 235.7636,75.6596 235.6916,75.7306 C235.6206,75.8026 235.5316,75.8376 235.4246,75.8376 L233.9766,75.8376 C233.8686,75.8376 233.7786,75.8026 233.7086,75.7306" id="Fill-22" fill="#286AA6" mask="url(#mask-2)"></path>
            <path d="M247.2359,75.5568 C247.0489,75.3688 246.9549,75.1408 246.9549,74.8728 L246.9549,58.1668 C246.9549,57.8998 247.0489,57.6708 247.2359,57.4838 C247.4239,57.2958 247.6519,57.2028 247.9209,57.2028 L256.7419,57.2028 C256.8489,57.2028 256.9379,57.2388 257.0099,57.3098 C257.0819,57.3808 257.1179,57.4708 257.1179,57.5778 L257.1179,58.8918 C257.1179,58.9988 257.0819,59.0878 257.0099,59.1598 C256.9379,59.2318 256.8489,59.2668 256.7419,59.2668 L249.1539,59.2668 L249.1539,65.0048 L254.9459,65.0048 C255.0519,65.0048 255.1419,65.0408 255.2139,65.1128 C255.2849,65.1838 255.3209,65.2738 255.3209,65.3808 L255.3209,66.6408 C255.3209,66.7478 255.2849,66.8378 255.2139,66.9098 C255.1419,66.9808 255.0519,67.0158 254.9459,67.0158 L249.1539,67.0158 L249.1539,73.7738 L256.7419,73.7738 C256.8489,73.7738 256.9379,73.8098 257.0099,73.8808 C257.0819,73.9528 257.1179,74.0408 257.1179,74.1488 L257.1179,75.4628 C257.1179,75.5698 257.0819,75.6598 257.0099,75.7308 C256.9379,75.8028 256.8489,75.8378 256.7419,75.8378 L247.9209,75.8378 C247.6519,75.8378 247.4239,75.7438 247.2359,75.5568" id="Fill-23" fill="#286AA6" mask="url(#mask-2)"></path>
            <path d="M272.0923,76.0929 C271.9933,76.0299 271.9263,75.9459 271.8913,75.8379 L266.7423,60.9299 L264.9733,75.3819 C264.9543,75.5259 264.8973,75.6369 264.7983,75.7169 C264.6993,75.7979 264.5793,75.8379 264.4373,75.8379 L263.1763,75.8379 C263.0323,75.8379 262.9213,75.7889 262.8413,75.6909 C262.7603,75.5929 262.7293,75.4809 262.7473,75.3559 L265.0803,57.4969 C265.0983,57.4079 265.1383,57.3359 265.2003,57.2819 C265.2633,57.2289 265.3303,57.2019 265.4023,57.2019 L267.2793,57.2019 C267.3863,57.2019 267.4933,57.2339 267.6013,57.2959 C267.7073,57.3589 267.7703,57.4439 267.7883,57.5509 L273.0713,72.8619 L278.4063,57.4439 C278.4603,57.2819 278.5683,57.2019 278.7283,57.2019 L280.5783,57.2019 C280.7213,57.2019 280.8423,57.2419 280.9413,57.3229 C281.0383,57.4039 281.0973,57.5149 281.1143,57.6579 L283.4213,75.3559 L283.4213,75.4089 C283.4213,75.5169 283.3803,75.6139 283.3003,75.7039 C283.2203,75.7939 283.1163,75.8379 282.9913,75.8379 L281.7043,75.8379 C281.5623,75.8379 281.4413,75.7979 281.3433,75.7169 C281.2443,75.6369 281.1863,75.5259 281.1683,75.3819 L279.3993,60.9839 L274.2503,75.8379 C274.2143,75.9459 274.1473,76.0299 274.0493,76.0929 C273.9503,76.1549 273.8483,76.1869 273.7403,76.1869 L272.4003,76.1869 C272.2933,76.1869 272.1903,76.1549 272.0923,76.0929" id="Fill-24" fill="#286AA6" mask="url(#mask-2)"></path>
            <path d="M295.5943,66.6681 C296.2743,66.6681 296.8993,66.5021 297.4713,66.1721 C298.0433,65.8411 298.4943,65.3901 298.8253,64.8171 C299.1563,64.2451 299.3223,63.6291 299.3223,62.9671 C299.3223,62.3061 299.1563,61.6891 298.8253,61.1171 C298.4943,60.5451 298.0433,60.0941 297.4713,59.7631 C296.8993,59.4331 296.2743,59.2671 295.5943,59.2671 L292.4573,59.2671 L292.4573,66.6681 L295.5943,66.6681 Z M290.3653,75.7311 C290.2943,75.6591 290.2583,75.5691 290.2583,75.4631 L290.2583,58.1671 C290.2583,57.8991 290.3523,57.6711 290.5393,57.4831 C290.7283,57.2961 290.9553,57.2021 291.2243,57.2021 L295.7293,57.2021 C296.8013,57.2021 297.7833,57.4621 298.6783,57.9801 C299.5723,58.4981 300.2783,59.1951 300.7963,60.0711 C301.3153,60.9471 301.5733,61.9131 301.5733,62.9671 C301.5733,64.0221 301.3153,64.9871 300.7963,65.8631 C300.2783,66.7391 299.5723,67.4371 298.6783,67.9541 C297.7833,68.4741 296.8013,68.7321 295.7293,68.7321 L292.4573,68.7321 L292.4573,75.4631 C292.4573,75.5691 292.4213,75.6591 292.3503,75.7311 C292.2793,75.8031 292.1893,75.8381 292.0813,75.8381 L290.6343,75.8381 C290.5273,75.8381 290.4373,75.8031 290.3653,75.7311 Z" id="Fill-25" fill="#286AA6" mask="url(#mask-2)"></path>
            <path d="M316.3619,73.505 C317.0319,73.094 317.5639,72.544 317.9579,71.857 C318.3499,71.168 318.5479,70.431 318.5479,69.644 L318.5479,63.397 C318.5479,62.609 318.3499,61.872 317.9579,61.184 C317.5639,60.496 317.0319,59.946 316.3619,59.535 C315.6909,59.124 314.9629,58.918 314.1759,58.918 C313.3889,58.918 312.6619,59.124 311.9909,59.535 C311.3209,59.946 310.7889,60.496 310.3959,61.184 C310.0029,61.872 309.8059,62.609 309.8059,63.397 L309.8059,69.644 C309.8059,70.431 310.0029,71.168 310.3959,71.857 C310.7889,72.544 311.3209,73.094 311.9909,73.505 C312.6619,73.916 313.3889,74.122 314.1759,74.122 C314.9629,74.122 315.6909,73.916 316.3619,73.505 M310.8919,75.302 C309.8819,74.712 309.0819,73.916 308.4919,72.915 C307.9019,71.914 307.6069,70.823 307.6069,69.644 L307.6069,63.397 C307.6069,62.217 307.9019,61.126 308.4919,60.125 C309.0819,59.124 309.8819,58.328 310.8919,57.738 C311.9019,57.149 312.9969,56.854 314.1759,56.854 C315.3559,56.854 316.4509,57.149 317.4619,57.738 C318.4709,58.328 319.2709,59.124 319.8609,60.125 C320.4509,61.126 320.7459,62.217 320.7459,63.397 L320.7459,69.644 C320.7459,70.823 320.4509,71.914 319.8609,72.915 C319.2709,73.916 318.4709,74.712 317.4619,75.302 C316.4509,75.892 315.3559,76.187 314.1759,76.187 C312.9969,76.187 311.9019,75.892 310.8919,75.302" id="Fill-26" fill="#286AA6" mask="url(#mask-2)"></path>
            <path d="M333.3218,65.9435 C334.2868,65.9435 335.0868,65.6315 335.7208,65.0055 C336.3558,64.3805 336.6738,63.5925 336.6738,62.6455 C336.6738,61.6625 336.3558,60.8535 335.7208,60.2185 C335.0868,59.5845 334.2868,59.2665 333.3218,59.2665 L330.0508,59.2665 L330.0508,65.9435 L333.3218,65.9435 Z M327.9588,75.7305 C327.8868,75.6595 327.8508,75.5695 327.8508,75.4635 L327.8508,58.1675 C327.8508,57.8995 327.9448,57.6715 328.1328,57.4835 C328.3208,57.2965 328.5488,57.2025 328.8168,57.2025 L333.4818,57.2025 C334.4828,57.2025 335.3988,57.4435 336.2308,57.9255 C337.0618,58.4095 337.7188,59.0655 338.2018,59.8965 C338.6838,60.7285 338.9258,61.6355 338.9258,62.6185 C338.9258,63.9235 338.5138,65.0675 337.6918,66.0505 C336.8698,67.0345 335.8328,67.6505 334.5818,67.9015 L339.0328,75.0875 C339.0868,75.1595 339.1128,75.2485 339.1128,75.3555 C339.1128,75.4985 339.0638,75.6145 338.9658,75.7045 C338.8678,75.7945 338.7468,75.8385 338.6038,75.8385 L337.2358,75.8385 C337.0568,75.8385 336.9238,75.7575 336.8338,75.5965 L332.1408,68.0075 L330.0508,68.0075 L330.0508,75.4635 C330.0508,75.5695 330.0138,75.6595 329.9428,75.7305 C329.8718,75.8025 329.7818,75.8385 329.6748,75.8385 L328.2268,75.8385 C328.1198,75.8385 328.0298,75.8025 327.9588,75.7305 Z" id="Fill-27" fill="#286AA6" mask="url(#mask-2)"></path>
            <path d="M354.3697,68.8664 L351.5007,59.9914 L348.6317,68.8664 L354.3697,68.8664 Z M344.3277,75.6644 C344.2467,75.5484 344.2337,75.4094 344.2867,75.2484 L350.1057,57.5514 C350.1407,57.4434 350.2087,57.3584 350.3077,57.2964 C350.4047,57.2334 350.5087,57.2024 350.6147,57.2024 L352.3857,57.2024 C352.4917,57.2024 352.5957,57.2334 352.6927,57.2964 C352.7917,57.3584 352.8577,57.4434 352.8937,57.5514 L358.7127,75.2484 C358.7307,75.2844 358.7407,75.3464 358.7407,75.4354 C358.7407,75.5434 358.6997,75.6374 358.6197,75.7174 C358.5387,75.7984 358.4357,75.8384 358.3107,75.8384 L356.9957,75.8384 C356.8907,75.8384 356.7867,75.8064 356.6897,75.7444 C356.5897,75.6814 356.5237,75.5964 356.4887,75.4894 L354.9857,70.8234 L348.0147,70.8234 L346.5127,75.4894 C346.4947,75.5964 346.4327,75.6814 346.3247,75.7444 C346.2177,75.8064 346.1107,75.8384 346.0037,75.8384 L344.6887,75.8384 C344.5287,75.8384 344.4077,75.7804 344.3277,75.6644 Z" id="Fill-28" fill="#286AA6" mask="url(#mask-2)"></path>
            <path d="M370.2442,65.9435 C371.2092,65.9435 372.0082,65.6315 372.6422,65.0055 C373.2772,64.3805 373.5962,63.5925 373.5962,62.6455 C373.5962,61.6625 373.2772,60.8535 372.6422,60.2185 C372.0082,59.5845 371.2092,59.2665 370.2442,59.2665 L366.9732,59.2665 L366.9732,65.9435 L370.2442,65.9435 Z M364.8812,75.7305 C364.8082,75.6595 364.7732,75.5695 364.7732,75.4635 L364.7732,58.1675 C364.7732,57.8995 364.8672,57.6715 365.0552,57.4835 C365.2422,57.2965 365.4712,57.2025 365.7382,57.2025 L370.4042,57.2025 C371.4042,57.2025 372.3202,57.4435 373.1522,57.9255 C373.9842,58.4095 374.6402,59.0655 375.1232,59.8965 C375.6052,60.7285 375.8482,61.6355 375.8482,62.6185 C375.8482,63.9235 375.4352,65.0675 374.6132,66.0505 C373.7912,67.0345 372.7542,67.6505 371.5042,67.9015 L375.9552,75.0875 C376.0082,75.1595 376.0352,75.2485 376.0352,75.3555 C376.0352,75.4985 375.9862,75.6145 375.8872,75.7045 C375.7892,75.7945 375.6682,75.8385 375.5252,75.8385 L374.1582,75.8385 C373.9782,75.8385 373.8462,75.7575 373.7562,75.5965 L369.0622,68.0075 L366.9732,68.0075 L366.9732,75.4635 C366.9732,75.5695 366.9352,75.6595 366.8652,75.7305 C366.7932,75.8025 366.7032,75.8385 366.5962,75.8385 L365.1482,75.8385 C365.0412,75.8385 364.9512,75.8025 364.8812,75.7305 Z" id="Fill-29" fill="#286AA6" mask="url(#mask-2)"></path>
            <path d="M386.1973,75.7306 C386.1273,75.6596 386.0903,75.5696 386.0903,75.4626 L386.0903,66.8556 L380.5933,57.9256 C380.5393,57.8196 380.5133,57.7296 380.5133,57.6586 C380.5133,57.5146 380.5563,57.4036 380.6463,57.3236 C380.7363,57.2426 380.8533,57.2026 380.9963,57.2026 L382.4433,57.2026 C382.6053,57.2026 382.7383,57.2826 382.8453,57.4436 L387.1893,64.6026 L391.5083,57.4436 C391.6133,57.2826 391.7483,57.2026 391.9083,57.2026 L393.3573,57.2026 C393.5003,57.2026 393.6153,57.2426 393.7053,57.3236 C393.7953,57.4036 393.8403,57.5146 393.8403,57.6586 C393.8403,57.7296 393.8123,57.8196 393.7593,57.9256 L388.2893,66.7746 L388.2893,75.4626 C388.2893,75.5696 388.2543,75.6596 388.1813,75.7306 C388.1113,75.8026 388.0213,75.8376 387.9143,75.8376 L386.4673,75.8376 C386.3593,75.8376 386.2693,75.8026 386.1973,75.7306" id="Fill-30" fill="#286AA6" mask="url(#mask-2)"></path>
            <path d="M162.73,82.175 L400.7,82.175 L400.7,48.243 L162.73,48.243 L162.73,82.175 Z M161.23,83.675 L402.2,83.675 L402.2,46.743 L161.23,46.743 L161.23,83.675 Z" id="Fill-31" fill="#286AA6" mask="url(#mask-2)"></path>
            <path d="M174.7984,174.5138 C173.8164,173.9238 173.0374,173.1278 172.4664,172.1268 C171.8944,171.1258 171.6084,170.0348 171.6084,168.8558 L171.6084,162.5808 C171.6084,161.4018 171.8944,160.3118 172.4664,159.3098 C173.0374,158.3088 173.8164,157.5138 174.7984,156.9238 C175.7814,156.3338 176.8544,156.0388 178.0164,156.0388 C178.9634,156.0388 179.8494,156.2038 180.6714,156.5348 C181.4924,156.8658 182.2174,157.3438 182.8434,157.9698 C182.9324,158.0408 182.9774,158.1488 182.9774,158.2908 C182.9774,158.4158 182.9324,158.5328 182.8434,158.6398 C182.4674,159.0688 182.2264,159.3368 182.1184,159.4448 C181.9934,159.5348 181.8684,159.5778 181.7434,159.5778 C181.6004,159.5778 181.4664,159.5158 181.3414,159.3908 C180.4474,158.5328 179.3484,158.1038 178.0434,158.1038 C177.2754,158.1038 176.5694,158.3088 175.9254,158.7198 C175.2814,159.1318 174.7724,159.6818 174.3974,160.3688 C174.0214,161.0578 173.8334,161.7948 173.8334,162.5808 L173.8334,168.8558 C173.8334,169.6428 174.0214,170.3798 174.3974,171.0688 C174.7724,171.7558 175.2814,172.3058 175.9254,172.7168 C176.5694,173.1278 177.2754,173.3338 178.0434,173.3338 C179.3484,173.3338 180.4474,172.9048 181.3414,172.0468 C181.4664,171.9218 181.6004,171.8598 181.7434,171.8598 C181.8684,171.8598 181.9934,171.9038 182.1184,171.9928 C182.2264,172.1008 182.4674,172.3678 182.8434,172.7978 C182.9324,172.8868 182.9774,173.0028 182.9774,173.1468 C182.9774,173.2718 182.9324,173.3788 182.8434,173.4678 C182.2174,174.0938 181.4924,174.5718 180.6714,174.9028 C179.8494,175.2328 178.9634,175.3988 178.0164,175.3988 C176.8544,175.3988 175.7814,175.1038 174.7984,174.5138" id="Fill-32" fill="#286AA6" mask="url(#mask-2)"></path>
            <path d="M189.6129,174.7687 C189.4259,174.5807 189.3319,174.3527 189.3319,174.0847 L189.3319,157.3787 C189.3319,157.1117 189.4259,156.8827 189.6129,156.6957 C189.8009,156.5077 190.0289,156.4147 190.2979,156.4147 L199.1189,156.4147 C199.2259,156.4147 199.3149,156.4507 199.3869,156.5217 C199.4589,156.5927 199.4949,156.6827 199.4949,156.7897 L199.4949,158.1037 C199.4949,158.2107 199.4589,158.2997 199.3869,158.3717 C199.3149,158.4437 199.2259,158.4787 199.1189,158.4787 L191.5309,158.4787 L191.5309,164.2167 L197.3229,164.2167 C197.4289,164.2167 197.5189,164.2527 197.5909,164.3247 C197.6619,164.3957 197.6979,164.4857 197.6979,164.5927 L197.6979,165.8527 C197.6979,165.9597 197.6619,166.0497 197.5909,166.1217 C197.5189,166.1927 197.4289,166.2277 197.3229,166.2277 L191.5309,166.2277 L191.5309,172.9857 L199.1189,172.9857 C199.2259,172.9857 199.3149,173.0217 199.3869,173.0927 C199.4589,173.1647 199.4949,173.2527 199.4949,173.3607 L199.4949,174.6747 C199.4949,174.7817 199.4589,174.8717 199.3869,174.9427 C199.3149,175.0147 199.2259,175.0497 199.1189,175.0497 L190.2979,175.0497 C190.0289,175.0497 189.8009,174.9557 189.6129,174.7687" id="Fill-33" fill="#286AA6" mask="url(#mask-2)"></path>
            <path d="M206.1705,174.9425 C206.0995,174.8715 206.0635,174.7815 206.0635,174.6745 L206.0635,156.9775 C206.0635,156.8165 206.1165,156.6825 206.2245,156.5755 C206.3315,156.4675 206.4655,156.4145 206.6265,156.4145 L208.2085,156.4145 C208.3515,156.4145 208.4845,156.4455 208.6105,156.5075 C208.7345,156.5705 208.8335,156.6655 208.9055,156.7895 L217.3785,171.5905 L217.3785,156.7895 C217.3785,156.6825 217.4145,156.5925 217.4855,156.5215 C217.5575,156.4505 217.6475,156.4145 217.7545,156.4145 L219.0955,156.4145 C219.2015,156.4145 219.2915,156.4505 219.3625,156.5215 C219.4345,156.5925 219.4705,156.6825 219.4705,156.7895 L219.4705,174.4865 C219.4705,174.6475 219.4165,174.7815 219.3095,174.8885 C219.2015,174.9965 219.0675,175.0495 218.9065,175.0495 L217.2985,175.0495 C217.1545,175.0495 217.0215,175.0185 216.8965,174.9565 C216.7715,174.8935 216.6725,174.7995 216.6015,174.6745 L208.1545,159.8995 L208.1545,174.6745 C208.1545,174.7815 208.1185,174.8715 208.0475,174.9425 C207.9765,175.0145 207.8865,175.0495 207.7785,175.0495 L206.4395,175.0495 C206.3315,175.0495 206.2415,175.0145 206.1705,174.9425" id="Fill-34" fill="#286AA6" mask="url(#mask-2)"></path>
            <path d="M230.8668,174.9425 C230.7948,174.8715 230.7598,174.7815 230.7598,174.6745 L230.7598,158.4785 L226.1208,158.4785 C226.0128,158.4785 225.9238,158.4435 225.8518,158.3715 C225.7808,158.2995 225.7448,158.2115 225.7448,158.1035 L225.7448,156.7895 C225.7448,156.6825 225.7808,156.5925 225.8518,156.5215 C225.9238,156.4505 226.0128,156.4145 226.1208,156.4145 L237.5958,156.4145 C237.7038,156.4145 237.7938,156.4505 237.8648,156.5215 C237.9358,156.5925 237.9718,156.6825 237.9718,156.7895 L237.9718,158.1035 C237.9718,158.2115 237.9358,158.2995 237.8648,158.3715 C237.7938,158.4435 237.7038,158.4785 237.5958,158.4785 L232.9578,158.4785 L232.9578,174.6745 C232.9578,174.7815 232.9218,174.8715 232.8498,174.9425 C232.7788,175.0145 232.6898,175.0495 232.5828,175.0495 L231.1348,175.0495 C231.0268,175.0495 230.9368,175.0145 230.8668,174.9425" id="Fill-35" fill="#286AA6" mask="url(#mask-2)"></path>
            <path d="M249.5836,165.1554 C250.5486,165.1554 251.3486,164.8434 251.9826,164.2174 C252.6176,163.5924 252.9356,162.8044 252.9356,161.8574 C252.9356,160.8744 252.6176,160.0654 251.9826,159.4304 C251.3486,158.7964 250.5486,158.4784 249.5836,158.4784 L246.3126,158.4784 L246.3126,165.1554 L249.5836,165.1554 Z M244.2206,174.9424 C244.1486,174.8714 244.1126,174.7814 244.1126,174.6754 L244.1126,157.3794 C244.1126,157.1114 244.2066,156.8834 244.3946,156.6954 C244.5826,156.5084 244.8106,156.4144 245.0786,156.4144 L249.7436,156.4144 C250.7446,156.4144 251.6606,156.6554 252.4926,157.1374 C253.3236,157.6214 253.9806,158.2774 254.4636,159.1084 C254.9456,159.9404 255.1876,160.8474 255.1876,161.8304 C255.1876,163.1354 254.7756,164.2794 253.9536,165.2624 C253.1316,166.2464 252.0946,166.8624 250.8436,167.1134 L255.2946,174.2994 C255.3486,174.3714 255.3746,174.4604 255.3746,174.5674 C255.3746,174.7104 255.3256,174.8264 255.2276,174.9164 C255.1296,175.0064 255.0086,175.0504 254.8656,175.0504 L253.4976,175.0504 C253.3186,175.0504 253.1856,174.9694 253.0956,174.8084 L248.4026,167.2194 L246.3126,167.2194 L246.3126,174.6754 C246.3126,174.7814 246.2756,174.8714 246.2046,174.9424 C246.1336,175.0144 246.0436,175.0504 245.9366,175.0504 L244.4886,175.0504 C244.3816,175.0504 244.2916,175.0144 244.2206,174.9424 Z" id="Fill-36" fill="#286AA6" mask="url(#mask-2)"></path>
            <path d="M262.1441,174.7687 C261.9571,174.5807 261.8631,174.3527 261.8631,174.0847 L261.8631,157.3787 C261.8631,157.1117 261.9571,156.8827 262.1441,156.6957 C262.3321,156.5077 262.5601,156.4147 262.8291,156.4147 L271.6501,156.4147 C271.7571,156.4147 271.8461,156.4507 271.9181,156.5217 C271.9901,156.5927 272.0261,156.6827 272.0261,156.7897 L272.0261,158.1037 C272.0261,158.2107 271.9901,158.2997 271.9181,158.3717 C271.8461,158.4437 271.7571,158.4787 271.6501,158.4787 L264.0621,158.4787 L264.0621,164.2167 L269.8541,164.2167 C269.9601,164.2167 270.0501,164.2527 270.1221,164.3247 C270.1931,164.3957 270.2291,164.4857 270.2291,164.5927 L270.2291,165.8527 C270.2291,165.9597 270.1931,166.0497 270.1221,166.1217 C270.0501,166.1927 269.9601,166.2277 269.8541,166.2277 L264.0621,166.2277 L264.0621,172.9857 L271.6501,172.9857 C271.7571,172.9857 271.8461,173.0217 271.9181,173.0927 C271.9901,173.1647 272.0261,173.2527 272.0261,173.3607 L272.0261,174.6747 C272.0261,174.7817 271.9901,174.8717 271.9181,174.9427 C271.8461,175.0147 271.7571,175.0497 271.6501,175.0497 L262.8291,175.0497 C262.5601,175.0497 262.3321,174.9557 262.1441,174.7687" id="Fill-37" fill="#286AA6" mask="url(#mask-2)"></path>
            <path d="M278.7027,167.7033 C278.6317,167.6323 278.5957,167.5423 278.5957,167.4343 L278.5957,166.1473 C278.5957,166.0403 278.6317,165.9513 278.7027,165.8803 C278.7737,165.8083 278.8637,165.7723 278.9717,165.7723 L285.6207,165.7723 C285.7277,165.7723 285.8167,165.8083 285.8897,165.8803 C285.9607,165.9513 285.9957,166.0403 285.9957,166.1473 L285.9957,167.4343 C285.9957,167.5423 285.9607,167.6323 285.8897,167.7033 C285.8167,167.7743 285.7277,167.8093 285.6207,167.8093 L278.9717,167.8093 C278.8637,167.8093 278.7737,167.7743 278.7027,167.7033" id="Fill-38" fill="#286AA6" mask="url(#mask-2)"></path>
            <path d="M293.6246,174.9562 C293.5436,174.8942 293.5036,174.8092 293.5036,174.7012 L293.5036,156.7892 C293.5036,156.6832 293.5396,156.5932 293.6106,156.5212 C293.6826,156.4502 293.7716,156.4142 293.8796,156.4142 L295.3266,156.4142 C295.4346,156.4142 295.5236,156.4502 295.5956,156.5212 C295.6666,156.5932 295.7026,156.6832 295.7026,156.7892 L295.7026,164.7802 L296.4796,164.7802 L302.9696,156.6552 C303.1116,156.4942 303.2726,156.4142 303.4516,156.4142 L305.1416,156.4142 C305.2666,156.4142 305.3596,156.4452 305.4226,156.5082 C305.4846,156.5702 305.5166,156.6552 305.5166,156.7632 C305.5166,156.8702 305.4796,156.9602 305.4086,157.0312 L298.4646,165.6382 L305.3826,174.3802 C305.4536,174.4512 305.4896,174.5402 305.4896,174.6472 C305.4896,174.7722 305.4496,174.8712 305.3686,174.9422 C305.2886,175.0152 305.1946,175.0502 305.0876,175.0502 L303.3976,175.0502 C303.2366,175.0502 303.0856,174.9702 302.9416,174.8092 L296.5876,166.7912 L295.7026,166.7912 L295.7026,174.7012 C295.7026,174.8092 295.6626,174.8942 295.5816,174.9562 C295.5016,175.0182 295.4076,175.0502 295.3006,175.0502 L293.9056,175.0502 C293.7986,175.0502 293.7046,175.0182 293.6246,174.9562" id="Fill-39" fill="#286AA6" mask="url(#mask-2)"></path>
            <path d="M315.7056,154.7384 C315.6516,154.6404 315.6516,154.5194 315.7056,154.3764 L316.6976,151.9634 C316.8406,151.6244 317.0906,151.4534 317.4476,151.4534 L319.2446,151.4534 C319.3516,151.4534 319.4406,151.4854 319.5136,151.5474 C319.5846,151.6104 319.6196,151.6944 319.6196,151.8014 C319.6196,151.9094 319.5846,151.9994 319.5136,152.0704 L317.3416,154.5634 C317.1616,154.7784 316.9296,154.8854 316.6436,154.8854 L316.0006,154.8854 C315.8566,154.8854 315.7596,154.8374 315.7056,154.7384 M311.5616,174.7684 C311.3746,174.5804 311.2806,174.3524 311.2806,174.0854 L311.2806,157.3794 C311.2806,157.1114 311.3746,156.8834 311.5616,156.6954 C311.7506,156.5084 311.9776,156.4144 312.2466,156.4144 L321.0676,156.4144 C321.1756,156.4144 321.2646,156.4504 321.3366,156.5214 C321.4076,156.5924 321.4436,156.6824 321.4436,156.7894 L321.4436,158.1034 C321.4436,158.2114 321.4076,158.3004 321.3366,158.3714 C321.2646,158.4434 321.1756,158.4784 321.0676,158.4784 L313.4796,158.4784 L313.4796,164.2174 L319.2716,164.2174 C319.3786,164.2174 319.4686,164.2534 319.5396,164.3244 C319.6106,164.3954 319.6466,164.4854 319.6466,164.5924 L319.6466,165.8524 C319.6466,165.9604 319.6106,166.0504 319.5396,166.1214 C319.4686,166.1924 319.3786,166.2274 319.2716,166.2274 L313.4796,166.2274 L313.4796,172.9854 L321.0676,172.9854 C321.1756,172.9854 321.2646,173.0214 321.3366,173.0924 C321.4076,173.1644 321.4436,173.2534 321.4436,173.3604 L321.4436,174.6754 C321.4436,174.7814 321.4076,174.8714 321.3366,174.9424 C321.2646,175.0144 321.1756,175.0504 321.0676,175.0504 L312.2466,175.0504 C311.9776,175.0504 311.7506,174.9564 311.5616,174.7684" id="Fill-40" fill="#286AA6" mask="url(#mask-2)"></path>
            <path d="M328.1334,174.9562 C328.0524,174.8942 328.0124,174.8092 328.0124,174.7012 L328.0124,156.7892 C328.0124,156.6832 328.0484,156.5932 328.1194,156.5212 C328.1914,156.4502 328.2804,156.4142 328.3884,156.4142 L329.8354,156.4142 C329.9434,156.4142 330.0324,156.4502 330.1044,156.5212 C330.1754,156.5932 330.2114,156.6832 330.2114,156.7892 L330.2114,164.7802 L330.9884,164.7802 L337.4784,156.6552 C337.6204,156.4942 337.7814,156.4142 337.9604,156.4142 L339.6504,156.4142 C339.7754,156.4142 339.8684,156.4452 339.9314,156.5082 C339.9934,156.5702 340.0254,156.6552 340.0254,156.7632 C340.0254,156.8702 339.9884,156.9602 339.9174,157.0312 L332.9734,165.6382 L339.8914,174.3802 C339.9624,174.4512 339.9984,174.5402 339.9984,174.6472 C339.9984,174.7722 339.9584,174.8712 339.8774,174.9422 C339.7974,175.0152 339.7034,175.0502 339.5964,175.0502 L337.9064,175.0502 C337.7454,175.0502 337.5944,174.9702 337.4504,174.8092 L331.0964,166.7912 L330.2114,166.7912 L330.2114,174.7012 C330.2114,174.8092 330.1714,174.8942 330.0904,174.9562 C330.0104,175.0182 329.9164,175.0502 329.8094,175.0502 L328.4144,175.0502 C328.3074,175.0502 328.2134,175.0182 328.1334,174.9562" id="Fill-41" fill="#286AA6" mask="url(#mask-2)"></path>
            <path d="M162.73,181.386 L348.191,181.386 L348.191,147.454 L162.73,147.454 L162.73,181.386 Z M161.23,182.886 L349.691,182.886 L349.691,145.954 L161.23,145.954 L161.23,182.886 Z" id="Fill-42" fill="#286AA6" mask="url(#mask-2)"></path>
            <path d="M180.7789,118.4718 L177.9099,109.5968 L175.0409,118.4718 L180.7789,118.4718 Z M170.7369,125.2698 C170.6559,125.1538 170.6429,125.0148 170.6959,124.8538 L176.5149,107.1568 C176.5499,107.0498 176.6179,106.9648 176.7169,106.9018 C176.8139,106.8398 176.9179,106.8078 177.0239,106.8078 L178.7949,106.8078 C178.9009,106.8078 179.0049,106.8398 179.1019,106.9018 C179.2009,106.9648 179.2669,107.0498 179.3029,107.1568 L185.1229,124.8538 C185.1399,124.8898 185.1489,124.9518 185.1489,125.0408 C185.1489,125.1488 185.1089,125.2428 185.0289,125.3228 C184.9479,125.4038 184.8449,125.4438 184.7199,125.4438 L183.4059,125.4438 C183.2999,125.4438 183.1959,125.4118 183.0979,125.3498 C182.9999,125.2868 182.9319,125.2018 182.8969,125.0948 L181.3949,120.4288 L174.4239,120.4288 L172.9219,125.0948 C172.9039,125.2018 172.8419,125.2868 172.7339,125.3498 C172.6269,125.4118 172.5199,125.4438 172.4129,125.4438 L171.0979,125.4438 C170.9379,125.4438 170.8169,125.3858 170.7369,125.2698 Z" id="Fill-43" fill="#286AA6" mask="url(#mask-2)"></path>
            <path d="M196.6519,115.549 C197.6169,115.549 198.4169,115.237 199.0509,114.611 C199.6859,113.986 200.0039,113.199 200.0039,112.252 C200.0039,111.268 199.6859,110.46 199.0509,109.825 C198.4169,109.19 197.6169,108.873 196.6519,108.873 L193.3809,108.873 L193.3809,115.549 L196.6519,115.549 Z M191.2889,125.336 C191.2169,125.265 191.1809,125.175 191.1809,125.069 L191.1809,107.773 C191.1809,107.506 191.2749,107.277 191.4629,107.09 C191.6509,106.902 191.8789,106.808 192.1469,106.808 L196.8119,106.808 C197.8129,106.808 198.7289,107.049 199.5609,107.532 C200.3919,108.015 201.0489,108.672 201.5319,109.503 C202.0139,110.335 202.2559,111.242 202.2559,112.224 C202.2559,113.53 201.8439,114.674 201.0219,115.656 C200.1999,116.64 199.1629,117.256 197.9119,117.507 L202.3629,124.693 C202.4169,124.765 202.4429,124.854 202.4429,124.961 C202.4429,125.104 202.3939,125.22 202.2959,125.31 C202.1979,125.4 202.0769,125.444 201.9339,125.444 L200.5659,125.444 C200.3869,125.444 200.2539,125.363 200.1639,125.202 L195.4709,117.613 L193.3809,117.613 L193.3809,125.069 C193.3809,125.175 193.3439,125.265 193.2729,125.336 C193.2019,125.408 193.1119,125.444 193.0049,125.444 L191.5569,125.444 C191.4499,125.444 191.3599,125.408 191.2889,125.336 Z" id="Fill-44" fill="#286AA6" mask="url(#mask-2)"></path>
            <path d="M211.5865,124.9074 C210.6045,124.3174 209.8255,123.5214 209.2545,122.5204 C208.6825,121.5194 208.3965,120.4284 208.3965,119.2494 L208.3965,112.9754 C208.3965,111.7954 208.6825,110.7054 209.2545,109.7034 C209.8255,108.7024 210.6045,107.9074 211.5865,107.3184 C212.5695,106.7284 213.6425,106.4334 214.8045,106.4334 C215.7515,106.4334 216.6375,106.5984 217.4595,106.9294 C218.2805,107.2594 219.0055,107.7384 219.6315,108.3644 C219.7205,108.4354 219.7655,108.5424 219.7655,108.6854 C219.7655,108.8104 219.7205,108.9264 219.6315,109.0334 C219.2555,109.4624 219.0145,109.7314 218.9065,109.8384 C218.7815,109.9284 218.6565,109.9724 218.5315,109.9724 C218.3885,109.9724 218.2545,109.9094 218.1295,109.7844 C217.2355,108.9264 216.1365,108.4974 214.8315,108.4974 C214.0635,108.4974 213.3575,108.7024 212.7135,109.1144 C212.0695,109.5264 211.5605,110.0754 211.1855,110.7634 C210.8095,111.4514 210.6215,112.1894 210.6215,112.9754 L210.6215,119.2494 C210.6215,120.0364 210.8095,120.7734 211.1855,121.4624 C211.5605,122.1494 212.0695,122.6994 212.7135,123.1104 C213.3575,123.5214 214.0635,123.7274 214.8315,123.7274 C216.1365,123.7274 217.2355,123.2984 218.1295,122.4404 C218.2545,122.3154 218.3885,122.2534 218.5315,122.2534 C218.6565,122.2534 218.7815,122.2974 218.9065,122.3864 C219.0145,122.4944 219.2555,122.7614 219.6315,123.1914 C219.7205,123.2804 219.7655,123.3964 219.7655,123.5404 C219.7655,123.6654 219.7205,123.7724 219.6315,123.8614 C219.0055,124.4874 218.2805,124.9654 217.4595,125.2964 C216.6375,125.6264 215.7515,125.7924 214.8045,125.7924 C213.6425,125.7924 212.5695,125.4974 211.5865,124.9074" id="Fill-45" fill="#286AA6" mask="url(#mask-2)"></path>
            <path d="M226.2281,125.3361 C226.1571,125.2651 226.1211,125.1751 226.1211,125.0681 L226.1211,107.1831 C226.1211,107.0771 226.1571,106.9871 226.2281,106.9161 C226.2991,106.8441 226.3891,106.8081 226.4971,106.8081 L227.9441,106.8081 C228.0511,106.8081 228.1411,106.8441 228.2121,106.9161 C228.2841,106.9871 228.3201,107.0771 228.3201,107.1831 L228.3201,114.6111 L237.3291,114.6111 L237.3291,107.1831 C237.3291,107.0771 237.3651,106.9871 237.4361,106.9161 C237.5071,106.8441 237.5971,106.8081 237.7051,106.8081 L239.1531,106.8081 C239.2591,106.8081 239.3491,106.8441 239.4201,106.9161 C239.4921,106.9871 239.5281,107.0771 239.5281,107.1831 L239.5281,125.0681 C239.5281,125.1751 239.4921,125.2651 239.4201,125.3361 C239.3491,125.4081 239.2591,125.4431 239.1531,125.4431 L237.7051,125.4431 C237.5971,125.4431 237.5071,125.4081 237.4361,125.3361 C237.3651,125.2651 237.3291,125.1751 237.3291,125.0681 L237.3291,116.6211 L228.3201,116.6211 L228.3201,125.0681 C228.3201,125.1751 228.2841,125.2651 228.2121,125.3361 C228.1411,125.4081 228.0511,125.4431 227.9441,125.4431 L226.4971,125.4431 C226.3891,125.4431 226.2991,125.4081 226.2281,125.3361" id="Fill-46" fill="#286AA6" mask="url(#mask-2)"></path>
            <path d="M246.4722,125.3361 C246.4002,125.2651 246.3652,125.1751 246.3652,125.0681 L246.3652,123.8081 C246.3652,123.7001 246.4002,123.6111 246.4722,123.5401 C246.5432,123.4691 246.6322,123.4331 246.7402,123.4331 L249.4482,123.4331 L249.4482,108.8191 L246.7402,108.8191 C246.6322,108.8191 246.5432,108.7841 246.4722,108.7111 C246.4002,108.6411 246.3652,108.5511 246.3652,108.4441 L246.3652,107.1831 C246.3652,107.0771 246.4002,106.9871 246.4722,106.9161 C246.5432,106.8441 246.6322,106.8081 246.7402,106.8081 L254.3552,106.8081 C254.4622,106.8081 254.5512,106.8441 254.6232,106.9161 C254.6952,106.9871 254.7312,107.0771 254.7312,107.1831 L254.7312,108.4441 C254.7312,108.5511 254.6952,108.6411 254.6232,108.7111 C254.5512,108.7841 254.4622,108.8191 254.3552,108.8191 L251.6472,108.8191 L251.6472,123.4331 L254.3552,123.4331 C254.4622,123.4331 254.5512,123.4691 254.6232,123.5401 C254.6952,123.6111 254.7312,123.7001 254.7312,123.8081 L254.7312,125.0681 C254.7312,125.1751 254.6952,125.2651 254.6232,125.3361 C254.5512,125.4081 254.4622,125.4431 254.3552,125.4431 L246.7402,125.4431 C246.6322,125.4431 246.5432,125.4081 246.4722,125.3361" id="Fill-47" fill="#286AA6" mask="url(#mask-2)"></path>
            <path d="M265.4566,125.3361 C265.3846,125.2651 265.3496,125.1751 265.3496,125.0681 L265.3496,108.8731 L260.7106,108.8731 C260.6026,108.8731 260.5136,108.8371 260.4416,108.7651 C260.3706,108.6941 260.3346,108.6051 260.3346,108.4981 L260.3346,107.1831 C260.3346,107.0771 260.3706,106.9871 260.4416,106.9161 C260.5136,106.8441 260.6026,106.8081 260.7106,106.8081 L272.1856,106.8081 C272.2936,106.8081 272.3836,106.8441 272.4546,106.9161 C272.5256,106.9871 272.5616,107.0771 272.5616,107.1831 L272.5616,108.4981 C272.5616,108.6051 272.5256,108.6941 272.4546,108.7651 C272.3836,108.8371 272.2936,108.8731 272.1856,108.8731 L267.5476,108.8731 L267.5476,125.0681 C267.5476,125.1751 267.5116,125.2651 267.4396,125.3361 C267.3686,125.4081 267.2796,125.4431 267.1726,125.4431 L265.7246,125.4431 C265.6166,125.4431 265.5266,125.4081 265.4566,125.3361" id="Fill-48" fill="#286AA6" mask="url(#mask-2)"></path>
            <path d="M278.983,125.1623 C278.796,124.9743 278.702,124.7463 278.702,124.4783 L278.702,107.7733 C278.702,107.5053 278.796,107.2773 278.983,107.0893 C279.171,106.9023 279.399,106.8083 279.668,106.8083 L288.489,106.8083 C288.596,106.8083 288.685,106.8443 288.757,106.9153 C288.829,106.9873 288.865,107.0773 288.865,107.1833 L288.865,108.4973 C288.865,108.6053 288.829,108.6943 288.757,108.7653 C288.685,108.8373 288.596,108.8723 288.489,108.8723 L280.901,108.8723 L280.901,114.6113 L286.693,114.6113 C286.799,114.6113 286.889,114.6473 286.961,114.7183 C287.032,114.7893 287.068,114.8793 287.068,114.9863 L287.068,116.2463 C287.068,116.3533 287.032,116.4433 286.961,116.5153 C286.889,116.5863 286.799,116.6213 286.693,116.6213 L280.901,116.6213 L280.901,123.3793 L288.489,123.3793 C288.596,123.3793 288.685,123.4153 288.757,123.4863 C288.829,123.5583 288.865,123.6463 288.865,123.7543 L288.865,125.0683 C288.865,125.1753 288.829,125.2653 288.757,125.3363 C288.685,125.4083 288.596,125.4433 288.489,125.4433 L279.668,125.4433 C279.399,125.4433 279.171,125.3493 278.983,125.1623" id="Fill-49" fill="#286AA6" mask="url(#mask-2)"></path>
            <path d="M297.6861,124.9074 C296.7041,124.3174 295.9251,123.5214 295.3541,122.5204 C294.7821,121.5194 294.4961,120.4284 294.4961,119.2494 L294.4961,112.9754 C294.4961,111.7954 294.7821,110.7054 295.3541,109.7034 C295.9251,108.7024 296.7041,107.9074 297.6861,107.3184 C298.6691,106.7284 299.7421,106.4334 300.9041,106.4334 C301.8511,106.4334 302.7371,106.5984 303.5591,106.9294 C304.3801,107.2594 305.1051,107.7384 305.7311,108.3644 C305.8201,108.4354 305.8651,108.5424 305.8651,108.6854 C305.8651,108.8104 305.8201,108.9264 305.7311,109.0334 C305.3551,109.4624 305.1141,109.7314 305.0061,109.8384 C304.8811,109.9284 304.7561,109.9724 304.6311,109.9724 C304.4881,109.9724 304.3541,109.9094 304.2291,109.7844 C303.3351,108.9264 302.2361,108.4974 300.9311,108.4974 C300.1631,108.4974 299.4571,108.7024 298.8131,109.1144 C298.1691,109.5264 297.6601,110.0754 297.2851,110.7634 C296.9091,111.4514 296.7211,112.1894 296.7211,112.9754 L296.7211,119.2494 C296.7211,120.0364 296.9091,120.7734 297.2851,121.4624 C297.6601,122.1494 298.1691,122.6994 298.8131,123.1104 C299.4571,123.5214 300.1631,123.7274 300.9311,123.7274 C302.2361,123.7274 303.3351,123.2984 304.2291,122.4404 C304.3541,122.3154 304.4881,122.2534 304.6311,122.2534 C304.7561,122.2534 304.8811,122.2974 305.0061,122.3864 C305.1141,122.4944 305.3551,122.7614 305.7311,123.1914 C305.8201,123.2804 305.8651,123.3964 305.8651,123.5404 C305.8651,123.6654 305.8201,123.7724 305.7311,123.8614 C305.1051,124.4874 304.3801,124.9654 303.5591,125.2964 C302.7371,125.6264 301.8511,125.7924 300.9041,125.7924 C299.7421,125.7924 298.6691,125.4974 297.6861,124.9074" id="Fill-50" fill="#286AA6" mask="url(#mask-2)"></path>
            <path d="M316.2418,125.3361 C316.1698,125.2651 316.1348,125.1751 316.1348,125.0681 L316.1348,108.8731 L311.4958,108.8731 C311.3878,108.8731 311.2988,108.8371 311.2268,108.7651 C311.1558,108.6941 311.1198,108.6051 311.1198,108.4981 L311.1198,107.1831 C311.1198,107.0771 311.1558,106.9871 311.2268,106.9161 C311.2988,106.8441 311.3878,106.8081 311.4958,106.8081 L322.9708,106.8081 C323.0788,106.8081 323.1688,106.8441 323.2398,106.9161 C323.3108,106.9871 323.3468,107.0771 323.3468,107.1831 L323.3468,108.4981 C323.3468,108.6051 323.3108,108.6941 323.2398,108.7651 C323.1688,108.8371 323.0788,108.8731 322.9708,108.8731 L318.3328,108.8731 L318.3328,125.0681 C318.3328,125.1751 318.2968,125.2651 318.2248,125.3361 C318.1538,125.4081 318.0648,125.4431 317.9578,125.4431 L316.5098,125.4431 C316.4018,125.4431 316.3118,125.4081 316.2418,125.3361" id="Fill-51" fill="#286AA6" mask="url(#mask-2)"></path>
            <path d="M332.8658,124.9074 C331.8638,124.3174 331.0728,123.4814 330.4928,122.4004 C329.9108,121.3184 329.6208,120.0904 329.6208,118.7134 L329.6208,107.1834 C329.6208,107.0764 329.6568,106.9874 329.7278,106.9154 C329.7998,106.8444 329.8888,106.8084 329.9968,106.8084 L331.4438,106.8084 C331.5518,106.8084 331.6408,106.8444 331.7128,106.9154 C331.7838,106.9874 331.8198,107.0764 331.8198,107.1834 L331.8198,118.8464 C331.8198,119.8124 332.0118,120.6624 332.3958,121.3944 C332.7798,122.1284 333.3028,122.6904 333.9648,123.0844 C334.6258,123.4774 335.3768,123.6744 336.2178,123.6744 C337.0388,123.6744 337.7808,123.4774 338.4428,123.0844 C339.1038,122.6904 339.6268,122.1284 340.0118,121.3944 C340.3948,120.6624 340.5878,119.8124 340.5878,118.8464 L340.5878,107.1834 C340.5878,107.0764 340.6238,106.9874 340.6948,106.9154 C340.7658,106.8444 340.8558,106.8084 340.9638,106.8084 L342.4108,106.8084 C342.5178,106.8084 342.6078,106.8444 342.6788,106.9154 C342.7508,106.9874 342.7868,107.0764 342.7868,107.1834 L342.7868,118.7134 C342.7868,120.0904 342.4958,121.3184 341.9148,122.4004 C341.3338,123.4814 340.5428,124.3174 339.5418,124.9074 C338.5408,125.4974 337.4318,125.7924 336.2178,125.7924 C334.9838,125.7924 333.8658,125.4974 332.8658,124.9074" id="Fill-52" fill="#286AA6" mask="url(#mask-2)"></path>
            <path d="M356.0333,115.549 C356.9983,115.549 357.7973,115.237 358.4313,114.611 C359.0663,113.986 359.3853,113.199 359.3853,112.252 C359.3853,111.268 359.0663,110.46 358.4313,109.825 C357.7973,109.19 356.9983,108.873 356.0333,108.873 L352.7613,108.873 L352.7613,115.549 L356.0333,115.549 Z M350.6693,125.336 C350.5983,125.265 350.5623,125.175 350.5623,125.069 L350.5623,107.773 C350.5623,107.506 350.6563,107.277 350.8433,107.09 C351.0323,106.902 351.2593,106.808 351.5283,106.808 L356.1933,106.808 C357.1933,106.808 358.1093,107.049 358.9413,107.532 C359.7733,108.015 360.4293,108.672 360.9123,109.503 C361.3943,110.335 361.6373,111.242 361.6373,112.224 C361.6373,113.53 361.2243,114.674 360.4023,115.656 C359.5803,116.64 358.5433,117.256 357.2933,117.507 L361.7443,124.693 C361.7973,124.765 361.8243,124.854 361.8243,124.961 C361.8243,125.104 361.7753,125.22 361.6763,125.31 C361.5783,125.4 361.4573,125.444 361.3143,125.444 L359.9473,125.444 C359.7673,125.444 359.6353,125.363 359.5453,125.202 L354.8523,117.613 L352.7613,117.613 L352.7613,125.069 C352.7613,125.175 352.7253,125.265 352.6543,125.336 C352.5823,125.408 352.4923,125.444 352.3853,125.444 L350.9383,125.444 C350.8303,125.444 350.7413,125.408 350.6693,125.336 Z" id="Fill-53" fill="#286AA6" mask="url(#mask-2)"></path>
            <path d="M368.5938,125.1623 C368.4068,124.9743 368.3128,124.7463 368.3128,124.4783 L368.3128,107.7733 C368.3128,107.5053 368.4068,107.2773 368.5938,107.0893 C368.7828,106.9023 369.0098,106.8083 369.2798,106.8083 L378.0998,106.8083 C378.2068,106.8083 378.2968,106.8443 378.3688,106.9153 C378.4398,106.9873 378.4768,107.0773 378.4768,107.1833 L378.4768,108.4973 C378.4768,108.6053 378.4398,108.6943 378.3688,108.7653 C378.2968,108.8373 378.2068,108.8723 378.0998,108.8723 L370.5118,108.8723 L370.5118,114.6113 L376.3048,114.6113 C376.4098,114.6113 376.4998,114.6473 376.5728,114.7183 C376.6428,114.7893 376.6798,114.8793 376.6798,114.9863 L376.6798,116.2463 C376.6798,116.3533 376.6428,116.4433 376.5728,116.5153 C376.4998,116.5863 376.4098,116.6213 376.3048,116.6213 L370.5118,116.6213 L370.5118,123.3793 L378.0998,123.3793 C378.2068,123.3793 378.2968,123.4153 378.3688,123.4863 C378.4398,123.5583 378.4768,123.6463 378.4768,123.7543 L378.4768,125.0683 C378.4768,125.1753 378.4398,125.2653 378.3688,125.3363 C378.2968,125.4083 378.2068,125.4433 378.0998,125.4433 L369.2798,125.4433 C369.0098,125.4433 368.7828,125.3493 368.5938,125.1623" id="Fill-54" fill="#286AA6" mask="url(#mask-2)"></path>
            <path d="M162.769,131.78 L386.706,131.78 L386.706,97.848 L162.769,97.848 L162.769,131.78 Z M161.27,133.28 L388.207,133.28 L388.207,96.348 L161.27,96.348 L161.27,133.28 Z" id="Fill-55" fill="#286AA6" mask="url(#mask-2)"></path>
            <polygon id="Fill-1" fill="#286AA6" mask="url(#mask-2)" points="55.6306 112.0192 48.3226 112.0192 26.5406 97.4962 26.5406 61.2622 48.3226 46.7432 55.6306 46.7432 55.6306 48.2432 48.7766 48.2432 28.0406 62.0652 28.0406 96.6932 48.7766 110.5192 55.6306 110.5192"></polygon>
            <polygon id="Fill-2" fill="#286AA6" mask="url(#mask-2)" points="77.2088 112.0192 59.1848 112.0192 59.1848 110.5192 76.5868 110.5192 83.3038 103.7972 86.7758 89.9152 86.7758 68.8432 83.3038 54.9612 76.5868 48.2432 59.1848 48.2432 59.1848 46.7432 77.2088 46.7432 84.6578 54.1952 88.2758 68.7502 88.2538 90.1902 84.6578 104.5652"></polygon>
            <path d="M56.387,114.063 L58.43,114.063 L58.43,44.696 L56.387,44.696 L56.387,114.063 Z M54.887,115.563 L59.93,115.563 L59.93,43.196 L54.887,43.196 L54.887,115.563 Z" id="Fill-3" fill="#286AA6" mask="url(#mask-2)"></path>
            <path d="M24.497,96.348 L26.54,96.348 L26.54,62.413 L24.497,62.413 L24.497,96.348 Z M22.997,97.848 L28.04,97.848 L28.04,60.913 L22.997,60.913 L22.997,97.848 Z" id="Fill-4" fill="#286AA6" mask="url(#mask-2)"></path>
            <path d="M88.276,75.088 L90.318,75.088 L90.318,73.045 L88.276,73.045 L88.276,75.088 Z M86.776,76.588 L91.818,76.588 L91.818,71.545 L86.776,71.545 L86.776,76.588 Z" id="Fill-5" fill="#286AA6" mask="url(#mask-2)"></path>
            <path d="M95.3611,83.673 L95.3611,98.792 L121.5481,83.673 L95.3611,83.673 Z M93.8611,101.39 L93.8611,82.173 L127.1451,82.173 L93.8611,101.39 Z M77.6481,114.063 L83.6741,114.063 L94.2461,103.527 L131.2321,82.173 L139.9261,82.173 L139.9261,80.13 L93.8611,80.13 L93.8611,69.501 L91.8181,69.501 L91.8181,103.03 L82.8271,112.019 L77.6481,112.019 L77.6481,114.063 Z M84.2951,115.563 L76.1481,115.563 L76.1481,110.519 L82.2061,110.519 L90.3181,102.409 L90.3181,68.001 L95.3611,68.001 L95.3611,78.63 L141.4261,78.63 L141.4261,83.673 L131.6341,83.673 L95.0821,104.777 L84.2951,115.563 Z" id="Fill-6" fill="#286AA6" mask="url(#mask-2)"></path>
            <polygon id="Fill-7" fill="#286AA6" mask="url(#mask-2)" points="135.7478 183.1813 75.5238 141.0123 56.7338 159.8013 55.6738 158.7413 75.3528 139.0613 135.3798 181.0913 136.5518 179.4183 76.8198 137.5933 80.6418 133.7733 79.1968 132.3273 76.1478 135.3763 76.1478 119.1073 74.1038 119.1073 74.1038 137.4193 54.2278 157.2953 53.1678 156.2353 72.6038 136.7983 72.6038 117.6073 77.6478 117.6073 77.6478 131.7553 79.1968 130.2063 82.7628 133.7733 79.1448 137.3903 138.6408 179.0493"></polygon>
        </g>
    </g>
</svg>